<svg id="svg" version="1.1" xmlns="http://www.w3.org/2000/svg" xmlns:xlink="http://www.w3.org/1999/xlink" width="400" height="400" viewBox="0, 0, 400,400"><g id="svgg"><path id="path0" d="M129.953 147.987 C 129.597 148.204,128.247 148.499,126.953 148.643 C 125.659 148.787,123.845 149.241,122.922 149.653 C 121.999 150.064,120.896 150.400,120.471 150.400 C 120.046 150.400,119.480 150.663,119.213 150.985 C 118.946 151.306,118.367 151.683,117.926 151.823 C 116.690 152.216,113.835 154.244,111.449 156.425 C 110.260 157.511,109.088 158.400,108.844 158.400 C 108.600 158.400,108.400 158.658,108.400 158.973 C 108.400 159.288,108.040 159.660,107.600 159.800 C 107.160 159.940,106.800 160.300,106.800 160.600 C 106.800 160.900,106.485 161.252,106.100 161.381 C 105.715 161.511,104.951 162.223,104.402 162.965 C 103.853 163.706,85.901 181.837,64.508 203.256 L 25.613 242.200 25.606 302.215 C 25.600 361.448,25.610 362.251,26.400 363.800 C 26.840 364.663,27.200 365.601,27.200 365.885 C 27.200 366.168,27.515 366.728,27.900 367.129 C 28.285 367.530,29.067 368.385,29.639 369.029 C 31.425 371.042,33.640 372.795,34.742 373.066 C 35.324 373.209,36.242 373.613,36.782 373.963 C 37.677 374.543,52.360 374.600,200.582 374.600 L 363.400 374.600 365.200 373.614 C 366.190 373.071,367.349 372.306,367.775 371.914 C 368.202 371.521,368.668 371.200,368.811 371.200 C 370.388 371.200,369.868 369.048,367.722 366.691 C 366.105 364.917,306.537 304.951,301.730 300.259 C 301.471 300.006,282.661 281.233,259.930 258.539 C 230.142 228.801,218.175 217.102,217.077 216.650 C 215.719 216.090,192.254 192.932,163.704 163.976 C 160.572 160.799,157.782 158.015,157.504 157.788 C 151.352 152.766,150.328 152.000,149.773 152.000 C 149.517 152.000,148.879 151.663,148.354 151.252 C 147.829 150.841,146.770 150.370,146.000 150.206 C 145.230 150.042,144.369 149.721,144.086 149.493 C 142.789 148.447,131.224 147.215,129.953 147.987 " stroke="none" fill="#14417d" fill-rule="evenodd"></path><path id="path1" d="M0.000 200.000 L 0.000 400.000 200.000 400.000 L 400.000 400.000 400.000 200.000 L 400.000 0.000 200.000 0.000 L 0.000 0.000 0.000 200.000 M365.304 26.097 C 368.345 27.544,372.468 31.673,373.891 34.696 L 374.975 37.000 375.019 200.400 L 375.062 363.800 374.080 365.800 C 372.451 369.114,368.626 373.542,367.354 373.585 C 367.109 373.593,366.450 373.960,365.891 374.400 C 364.878 375.197,364.268 375.200,200.474 375.200 L 36.074 375.200 33.937 374.116 C 31.767 373.015,26.400 367.964,26.400 367.023 C 26.400 366.740,26.039 366.049,25.598 365.488 C 24.798 364.471,24.796 364.072,24.898 200.734 L 25.000 37.000 25.940 35.051 C 27.114 32.620,28.848 30.541,31.889 27.924 C 32.953 27.008,35.301 25.831,37.600 25.062 C 37.930 24.951,111.280 24.892,200.600 24.931 L 363.000 25.000 365.304 26.097 M250.800 76.000 C 249.590 76.411,248.235 76.759,247.789 76.774 C 247.343 76.788,246.623 77.042,246.189 77.337 C 245.755 77.633,244.840 78.065,244.155 78.298 C 239.391 79.915,228.519 90.605,228.389 93.800 C 228.380 94.020,228.025 94.920,227.600 95.800 C 227.175 96.680,226.821 97.602,226.814 97.848 C 226.806 98.094,226.440 99.423,226.000 100.800 C 224.303 106.111,225.083 115.939,227.637 121.444 C 228.057 122.348,228.401 123.248,228.403 123.444 C 228.406 123.831,231.428 128.597,232.400 129.747 C 237.090 135.294,242.058 138.556,249.600 141.041 C 256.133 143.192,268.839 141.825,274.400 138.371 C 274.730 138.166,275.444 137.808,275.987 137.576 C 278.890 136.334,286.334 128.890,287.576 125.987 C 287.808 125.444,288.166 124.730,288.371 124.400 C 289.072 123.270,290.353 120.201,290.623 119.000 C 290.772 118.340,291.159 116.958,291.483 115.929 C 292.333 113.234,292.046 102.651,291.041 99.600 C 288.590 92.161,285.184 86.972,279.750 82.400 C 278.511 81.357,273.817 78.406,273.394 78.403 C 273.171 78.401,272.316 78.040,271.496 77.600 C 270.675 77.160,269.756 76.800,269.454 76.800 C 269.151 76.800,267.777 76.440,266.400 76.000 C 262.934 74.893,254.061 74.893,250.800 76.000 " stroke="none" fill="#fbfbfb" fill-rule="evenodd"></path><path id="path2" d="M37.139 25.757 C 36.555 26.063,35.396 26.537,34.563 26.812 C 32.536 27.481,27.481 32.536,26.812 34.563 C 26.537 35.396,26.063 36.555,25.759 37.139 C 25.174 38.259,24.991 210.646,25.553 231.314 L 25.800 240.427 61.200 205.070 C 80.670 185.623,98.948 167.302,101.817 164.356 C 110.565 155.374,113.863 152.599,118.400 150.403 C 119.390 149.923,120.678 149.277,121.262 148.966 C 121.846 148.655,122.656 148.398,123.062 148.395 C 123.468 148.392,124.941 148.032,126.336 147.595 C 129.120 146.722,136.942 146.484,139.600 147.192 C 140.370 147.397,141.990 147.822,143.200 148.137 C 144.410 148.452,145.940 148.999,146.600 149.352 C 147.260 149.706,148.093 149.996,148.451 149.998 C 148.809 149.999,149.326 150.270,149.600 150.600 C 149.874 150.930,150.318 151.200,150.587 151.200 C 150.856 151.200,151.402 151.560,151.800 152.000 C 152.198 152.440,152.702 152.800,152.919 152.800 C 153.780 152.800,158.675 157.511,180.890 179.718 C 193.610 192.434,204.187 202.732,204.395 202.603 C 204.604 202.474,205.003 202.736,205.283 203.184 C 205.999 204.330,208.400 204.342,208.400 203.200 C 208.400 202.667,208.667 202.400,209.200 202.400 C 209.733 202.400,210.000 202.133,210.000 201.600 C 210.000 200.933,210.267 200.800,211.600 200.800 C 212.933 200.800,213.200 200.667,213.200 200.000 C 213.200 199.333,213.467 199.200,214.800 199.200 C 216.133 199.200,216.400 199.067,216.400 198.400 C 216.400 197.733,216.667 197.600,218.000 197.600 C 219.333 197.600,219.600 197.467,219.600 196.800 C 219.600 196.267,219.867 196.000,220.400 196.000 C 220.933 196.000,221.200 195.733,221.200 195.200 C 221.200 194.533,221.467 194.400,222.800 194.400 C 224.133 194.400,224.400 194.267,224.400 193.600 C 224.400 192.952,224.667 192.800,225.800 192.800 C 226.778 192.800,227.200 192.619,227.200 192.200 C 227.200 191.867,227.556 191.600,228.000 191.600 C 228.533 191.600,228.800 191.333,228.800 190.800 C 228.800 190.133,229.067 190.000,230.400 190.000 C 231.733 190.000,232.000 189.867,232.000 189.200 C 232.000 188.533,232.267 188.400,233.600 188.400 C 234.933 188.400,235.200 188.267,235.200 187.600 C 235.200 186.933,235.467 186.800,236.800 186.800 C 238.133 186.800,238.400 186.667,238.400 186.000 C 238.400 185.467,238.667 185.200,239.200 185.200 C 239.733 185.200,240.000 184.933,240.000 184.400 C 240.000 183.752,240.267 183.600,241.400 183.600 C 242.533 183.600,242.800 183.448,242.800 182.800 C 242.800 182.133,243.067 182.000,244.400 182.000 C 245.733 182.000,246.000 181.867,246.000 181.200 C 246.000 180.533,246.267 180.400,247.600 180.400 C 248.933 180.400,249.200 180.267,249.200 179.600 C 249.200 179.067,249.467 178.800,250.000 178.800 C 250.533 178.800,250.800 178.533,250.800 178.000 C 250.800 177.333,251.067 177.200,252.400 177.200 C 253.733 177.200,254.000 177.067,254.000 176.400 C 254.000 175.733,254.267 175.600,255.600 175.600 C 256.756 175.600,257.200 175.433,257.200 175.000 C 257.200 174.581,257.622 174.400,258.600 174.400 C 259.733 174.400,260.000 174.248,260.000 173.600 C 260.000 173.067,260.267 172.800,260.800 172.800 C 261.333 172.800,261.600 172.533,261.600 172.000 C 261.600 171.333,261.867 171.200,263.200 171.200 C 264.533 171.200,264.800 171.067,264.800 170.400 C 264.800 169.733,265.067 169.600,266.400 169.600 C 267.733 169.600,268.000 169.467,268.000 168.800 C 268.000 168.267,268.267 168.000,268.800 168.000 C 269.333 168.000,269.600 167.733,269.600 167.200 C 269.600 166.533,269.867 166.400,271.200 166.400 C 272.533 166.400,272.800 166.267,272.800 165.600 C 272.800 164.952,273.067 164.800,274.200 164.800 C 275.333 164.800,275.600 164.648,275.600 164.000 C 275.600 163.333,275.867 163.200,277.200 163.200 C 278.533 163.200,278.800 163.067,278.800 162.400 C 278.800 161.867,279.067 161.600,279.600 161.600 C 280.133 161.600,280.400 161.333,280.400 160.800 C 280.400 160.133,280.667 160.000,282.000 160.000 C 283.333 160.000,283.600 159.867,283.600 159.200 C 283.600 158.533,283.867 158.400,285.200 158.400 C 286.356 158.400,286.800 158.233,286.800 157.800 C 286.800 157.367,287.244 157.200,288.400 157.200 C 289.733 157.200,290.000 157.067,290.000 156.400 C 290.000 155.867,290.267 155.600,290.800 155.600 C 291.333 155.600,291.600 155.333,291.600 154.800 C 291.600 154.152,291.867 154.000,293.000 154.000 C 294.133 154.000,294.400 153.848,294.400 153.200 C 294.400 152.533,294.667 152.400,296.000 152.400 C 297.333 152.400,297.600 152.267,297.600 151.600 C 297.600 150.933,297.867 150.800,299.200 150.800 C 300.533 150.800,300.800 150.667,300.800 150.000 C 300.800 149.467,301.067 149.200,301.600 149.200 C 302.133 149.200,302.400 148.933,302.400 148.400 C 302.400 147.733,302.667 147.600,304.000 147.600 C 305.333 147.600,305.600 147.467,305.600 146.800 C 305.600 146.152,305.867 146.000,307.000 146.000 C 308.133 146.000,308.400 145.848,308.400 145.200 C 308.400 144.667,308.667 144.400,309.200 144.400 C 309.733 144.400,310.000 144.133,310.000 143.600 C 310.000 142.933,310.267 142.800,311.600 142.800 C 312.756 142.800,313.200 142.633,313.200 142.200 C 313.200 141.767,313.644 141.600,314.800 141.600 C 316.133 141.600,316.400 141.467,316.400 140.800 C 316.400 140.133,316.667 140.000,318.000 140.000 C 319.333 140.000,319.600 139.867,319.600 139.200 C 319.600 138.667,319.867 138.400,320.400 138.400 C 320.933 138.400,321.200 138.133,321.200 137.600 C 321.200 136.933,321.467 136.800,322.800 136.800 C 324.133 136.800,324.400 136.667,324.400 136.000 C 324.400 135.352,324.667 135.200,325.800 135.200 C 326.933 135.200,327.200 135.048,327.200 134.400 C 327.200 133.733,327.467 133.600,328.800 133.600 C 330.133 133.600,330.400 133.467,330.400 132.800 C 330.400 132.267,330.667 132.000,331.200 132.000 C 331.733 132.000,332.000 131.733,332.000 131.200 C 332.000 130.533,332.267 130.400,333.600 130.400 C 334.933 130.400,335.200 130.267,335.200 129.600 C 335.200 128.933,335.467 128.800,336.800 128.800 C 338.133 128.800,338.400 128.667,338.400 128.000 C 338.400 127.467,338.667 127.200,339.200 127.200 C 339.733 127.200,340.000 126.933,340.000 126.400 C 340.000 125.752,340.267 125.600,341.400 125.600 C 342.378 125.600,342.800 125.419,342.800 125.000 C 342.800 124.567,343.244 124.400,344.400 124.400 C 345.733 124.400,346.000 124.267,346.000 123.600 C 346.000 122.933,346.267 122.800,347.600 122.800 C 348.933 122.800,349.200 122.667,349.200 122.000 C 349.200 121.467,349.467 121.200,350.000 121.200 C 350.533 121.200,350.800 120.933,350.800 120.400 C 350.800 119.733,351.067 119.600,352.400 119.600 C 353.733 119.600,354.000 119.467,354.000 118.800 C 354.000 118.133,354.267 118.000,355.600 118.000 C 356.933 118.000,357.200 117.867,357.200 117.200 C 357.200 116.552,357.467 116.400,358.600 116.400 C 359.733 116.400,360.000 116.248,360.000 115.600 C 360.000 115.067,360.267 114.800,360.800 114.800 C 361.333 114.800,361.600 114.533,361.600 114.000 C 361.600 113.333,361.867 113.200,363.200 113.200 C 364.533 113.200,364.800 113.067,364.800 112.400 C 364.800 111.733,365.067 111.600,366.400 111.600 C 367.733 111.600,368.000 111.467,368.000 110.800 C 368.000 110.133,368.267 110.000,369.600 110.000 C 370.933 110.000,371.200 109.867,371.200 109.200 C 371.200 108.667,371.467 108.400,372.000 108.400 C 372.444 108.400,372.800 108.133,372.800 107.800 C 372.800 107.467,373.156 107.200,373.600 107.200 C 374.392 107.200,374.401 106.900,374.500 77.100 C 374.636 36.203,374.650 37.786,374.146 37.154 C 373.903 36.849,373.488 35.929,373.224 35.109 C 372.714 33.526,371.484 31.881,369.200 29.727 C 367.024 27.676,366.721 27.466,364.388 26.400 L 362.200 25.400 200.200 25.301 C 62.622 25.217,38.040 25.285,37.139 25.757 M268.372 75.639 C 270.711 76.385,273.058 77.420,276.347 79.155 C 277.866 79.956,282.860 84.000,283.799 85.188 C 284.238 85.745,284.972 86.560,285.429 87.000 C 285.886 87.440,286.376 88.115,286.517 88.500 C 286.659 88.885,286.943 89.200,287.148 89.200 C 287.354 89.200,287.726 89.695,287.977 90.300 C 288.227 90.905,288.870 92.120,289.406 93.000 C 290.714 95.147,291.200 96.295,291.200 97.240 C 291.200 97.674,291.515 98.509,291.900 99.096 C 292.514 100.032,292.600 101.260,292.600 109.039 C 292.600 116.930,292.522 118.000,291.900 118.689 C 291.515 119.115,291.200 119.932,291.200 120.505 C 291.200 121.696,290.790 122.725,289.411 125.000 C 288.878 125.880,288.255 127.010,288.027 127.510 C 287.799 128.011,287.339 128.525,287.006 128.653 C 286.673 128.781,286.400 129.138,286.400 129.447 C 286.400 130.119,280.332 136.400,279.682 136.400 C 279.432 136.400,279.035 136.760,278.800 137.200 C 278.565 137.640,278.132 138.000,277.840 138.000 C 277.547 138.000,276.850 138.360,276.291 138.800 C 275.731 139.240,275.015 139.600,274.699 139.600 C 274.383 139.600,273.798 139.960,273.400 140.400 C 272.920 140.931,272.168 141.200,271.167 141.200 C 270.262 141.200,269.377 141.481,268.958 141.900 C 267.821 143.038,251.444 143.172,249.071 142.062 C 248.152 141.632,246.743 141.168,245.940 141.030 C 245.137 140.892,244.260 140.514,243.991 140.189 C 243.722 139.865,243.158 139.600,242.738 139.600 C 242.319 139.600,241.874 139.337,241.750 139.015 C 241.627 138.694,241.138 138.309,240.663 138.161 C 239.289 137.733,232.400 131.806,232.400 131.053 C 232.400 130.914,232.085 130.459,231.700 130.042 C 229.902 128.094,229.200 127.075,229.200 126.409 C 229.200 126.011,228.947 125.588,228.638 125.470 C 228.328 125.351,227.957 124.714,227.812 124.055 C 227.667 123.395,227.304 122.652,227.006 122.405 C 226.707 122.157,226.336 121.199,226.181 120.277 C 226.026 119.355,225.652 118.245,225.350 117.811 C 224.552 116.665,224.564 101.461,225.365 99.927 C 225.673 99.337,226.054 98.264,226.213 97.543 C 226.480 96.326,227.568 93.806,228.433 92.400 C 228.636 92.070,228.992 91.355,229.225 90.811 C 229.458 90.267,229.907 89.547,230.222 89.211 C 230.538 88.875,231.473 87.803,232.298 86.829 C 234.452 84.289,237.188 81.726,239.048 80.507 C 239.462 80.236,240.483 79.561,241.318 79.007 C 242.153 78.453,242.943 78.000,243.074 78.000 C 243.205 78.000,244.052 77.667,244.956 77.260 C 250.977 74.550,262.467 73.755,268.372 75.639 " stroke="none" fill="#2fabeb" fill-rule="evenodd"></path><path id="path3" d="M126.200 147.616 C 124.880 148.041,123.491 148.391,123.112 148.394 C 122.734 148.397,121.654 148.775,120.712 149.234 C 113.721 152.641,111.483 154.433,101.817 164.356 C 98.948 167.302,80.580 185.712,61.000 205.268 L 25.400 240.822 25.296 301.828 L 25.192 362.833 26.266 365.117 C 28.501 369.871,34.920 374.869,38.639 374.750 L 40.200 374.700 38.535 374.428 C 37.619 374.278,36.629 373.965,36.335 373.733 C 36.041 373.500,35.324 373.197,34.742 373.058 C 33.643 372.796,31.432 371.051,29.639 369.029 C 29.067 368.385,28.285 367.530,27.900 367.129 C 27.515 366.728,27.200 366.168,27.200 365.885 C 27.200 365.601,26.840 364.663,26.400 363.800 C 25.610 362.251,25.600 361.448,25.606 302.215 L 25.613 242.200 64.508 203.256 C 85.901 181.837,103.853 163.706,104.402 162.965 C 104.951 162.223,105.715 161.511,106.100 161.381 C 106.485 161.252,106.800 160.900,106.800 160.600 C 106.800 160.300,107.160 159.940,107.600 159.800 C 108.040 159.660,108.400 159.288,108.400 158.973 C 108.400 158.658,108.600 158.400,108.844 158.400 C 109.088 158.400,110.260 157.511,111.449 156.425 C 113.835 154.244,116.690 152.216,117.926 151.823 C 118.367 151.683,118.946 151.306,119.213 150.985 C 119.480 150.663,120.081 150.399,120.549 150.398 C 121.017 150.396,121.940 150.109,122.600 149.760 C 123.260 149.411,124.970 148.961,126.400 148.759 C 127.830 148.558,129.478 148.200,130.062 147.964 C 131.850 147.241,142.770 148.432,144.086 149.493 C 144.369 149.721,145.230 150.042,146.000 150.206 C 146.770 150.370,147.829 150.841,148.354 151.252 C 148.879 151.663,149.517 152.000,149.773 152.000 C 150.328 152.000,151.352 152.766,157.504 157.788 C 157.782 158.015,160.572 160.799,163.704 163.976 C 192.254 192.932,215.719 216.090,217.077 216.650 C 218.175 217.102,230.142 228.801,259.930 258.539 C 282.661 281.233,301.471 300.006,301.730 300.259 C 306.537 304.951,366.105 364.917,367.722 366.691 C 369.868 369.048,370.388 371.200,368.811 371.200 C 368.668 371.200,368.202 371.525,367.775 371.921 C 366.790 372.838,364.550 374.004,363.000 374.406 L 361.800 374.718 363.116 374.759 C 363.840 374.782,364.920 374.467,365.516 374.061 C 366.112 373.654,367.279 372.889,368.109 372.361 C 369.412 371.532,370.554 370.005,372.682 366.250 C 374.475 363.085,374.401 364.802,374.391 326.839 L 374.381 291.000 334.891 251.327 C 313.171 229.506,292.610 208.794,289.200 205.300 C 279.760 195.626,274.505 191.677,269.651 190.611 C 268.958 190.459,267.890 190.084,267.276 189.778 C 264.541 188.414,253.197 188.669,248.600 190.198 C 240.584 192.865,237.545 195.287,220.235 212.807 C 218.935 214.123,217.542 215.200,217.140 215.200 C 216.706 215.200,204.494 203.295,187.063 185.881 C 158.955 157.799,153.796 152.800,152.919 152.800 C 152.702 152.800,152.198 152.440,151.800 152.000 C 151.402 151.560,150.856 151.200,150.587 151.200 C 150.318 151.200,149.874 150.930,149.600 150.600 C 149.326 150.270,148.809 149.999,148.451 149.998 C 148.093 149.996,147.260 149.706,146.600 149.352 C 145.940 148.999,144.410 148.452,143.200 148.137 C 141.990 147.822,140.370 147.397,139.600 147.192 C 137.009 146.502,128.858 146.760,126.200 147.616 " stroke="none" fill="#3f69c4" fill-rule="evenodd"></path><path id="path4" d="M37.600 25.062 C 35.301 25.831,32.953 27.008,31.889 27.924 C 28.848 30.541,27.114 32.620,25.940 35.051 L 25.000 37.000 24.898 200.734 C 24.796 364.072,24.798 364.471,25.598 365.488 C 26.039 366.049,26.400 366.740,26.400 367.023 C 26.400 367.964,31.767 373.015,33.937 374.116 L 36.074 375.200 200.474 375.200 C 364.268 375.200,364.878 375.197,365.891 374.400 C 366.450 373.960,367.109 373.593,367.354 373.585 C 368.626 373.542,372.451 369.114,374.080 365.800 L 375.062 363.800 375.019 200.400 L 374.975 37.000 373.891 34.696 C 372.468 31.673,368.345 27.544,365.304 26.097 L 363.000 25.000 200.600 24.931 C 111.280 24.892,37.930 24.951,37.600 25.062 M364.388 26.400 C 366.721 27.466,367.024 27.676,369.200 29.727 C 371.484 31.881,372.714 33.526,373.224 35.109 C 373.488 35.929,373.903 36.849,374.146 37.154 C 374.650 37.786,374.636 36.203,374.500 77.100 C 374.401 106.900,374.392 107.200,373.600 107.200 C 373.156 107.200,372.800 107.467,372.800 107.800 C 372.800 108.133,372.444 108.400,372.000 108.400 C 371.467 108.400,371.200 108.667,371.200 109.200 C 371.200 109.867,370.933 110.000,369.600 110.000 C 368.267 110.000,368.000 110.133,368.000 110.800 C 368.000 111.467,367.733 111.600,366.400 111.600 C 365.067 111.600,364.800 111.733,364.800 112.400 C 364.800 113.067,364.533 113.200,363.200 113.200 C 361.867 113.200,361.600 113.333,361.600 114.000 C 361.600 114.533,361.333 114.800,360.800 114.800 C 360.267 114.800,360.000 115.067,360.000 115.600 C 360.000 116.248,359.733 116.400,358.600 116.400 C 357.467 116.400,357.200 116.552,357.200 117.200 C 357.200 117.867,356.933 118.000,355.600 118.000 C 354.267 118.000,354.000 118.133,354.000 118.800 C 354.000 119.467,353.733 119.600,352.400 119.600 C 351.067 119.600,350.800 119.733,350.800 120.400 C 350.800 120.933,350.533 121.200,350.000 121.200 C 349.467 121.200,349.200 121.467,349.200 122.000 C 349.200 122.667,348.933 122.800,347.600 122.800 C 346.267 122.800,346.000 122.933,346.000 123.600 C 346.000 124.267,345.733 124.400,344.400 124.400 C 343.244 124.400,342.800 124.567,342.800 125.000 C 342.800 125.419,342.378 125.600,341.400 125.600 C 340.267 125.600,340.000 125.752,340.000 126.400 C 340.000 126.933,339.733 127.200,339.200 127.200 C 338.667 127.200,338.400 127.467,338.400 128.000 C 338.400 128.667,338.133 128.800,336.800 128.800 C 335.467 128.800,335.200 128.933,335.200 129.600 C 335.200 130.267,334.933 130.400,333.600 130.400 C 332.267 130.400,332.000 130.533,332.000 131.200 C 332.000 131.733,331.733 132.000,331.200 132.000 C 330.667 132.000,330.400 132.267,330.400 132.800 C 330.400 133.467,330.133 133.600,328.800 133.600 C 327.467 133.600,327.200 133.733,327.200 134.400 C 327.200 135.048,326.933 135.200,325.800 135.200 C 324.667 135.200,324.400 135.352,324.400 136.000 C 324.400 136.667,324.133 136.800,322.800 136.800 C 321.467 136.800,321.200 136.933,321.200 137.600 C 321.200 138.133,320.933 138.400,320.400 138.400 C 319.867 138.400,319.600 138.667,319.600 139.200 C 319.600 139.867,319.333 140.000,318.000 140.000 C 316.667 140.000,316.400 140.133,316.400 140.800 C 316.400 141.467,316.133 141.600,314.800 141.600 C 313.644 141.600,313.200 141.767,313.200 142.200 C 313.200 142.633,312.756 142.800,311.600 142.800 C 310.267 142.800,310.000 142.933,310.000 143.600 C 310.000 144.133,309.733 144.400,309.200 144.400 C 308.667 144.400,308.400 144.667,308.400 145.200 C 308.400 145.848,308.133 146.000,307.000 146.000 C 305.867 146.000,305.600 146.152,305.600 146.800 C 305.600 147.467,305.333 147.600,304.000 147.600 C 302.667 147.600,302.400 147.733,302.400 148.400 C 302.400 148.933,302.133 149.200,301.600 149.200 C 301.067 149.200,300.800 149.467,300.800 150.000 C 300.800 150.667,300.533 150.800,299.200 150.800 C 297.867 150.800,297.600 150.933,297.600 151.600 C 297.600 152.267,297.333 152.400,296.000 152.400 C 294.667 152.400,294.400 152.533,294.400 153.200 C 294.400 153.848,294.133 154.000,293.000 154.000 C 291.867 154.000,291.600 154.152,291.600 154.800 C 291.600 155.333,291.333 155.600,290.800 155.600 C 290.267 155.600,290.000 155.867,290.000 156.400 C 290.000 157.067,289.733 157.200,288.400 157.200 C 287.244 157.200,286.800 157.367,286.800 157.800 C 286.800 158.233,286.356 158.400,285.200 158.400 C 283.867 158.400,283.600 158.533,283.600 159.200 C 283.600 159.867,283.333 160.000,282.000 160.000 C 280.667 160.000,280.400 160.133,280.400 160.800 C 280.400 161.333,280.133 161.600,279.600 161.600 C 279.067 161.600,278.800 161.867,278.800 162.400 C 278.800 163.067,278.533 163.200,277.200 163.200 C 275.867 163.200,275.600 163.333,275.600 164.000 C 275.600 164.648,275.333 164.800,274.200 164.800 C 273.067 164.800,272.800 164.952,272.800 165.600 C 272.800 166.267,272.533 166.400,271.200 166.400 C 269.867 166.400,269.600 166.533,269.600 167.200 C 269.600 167.733,269.333 168.000,268.800 168.000 C 268.267 168.000,268.000 168.267,268.000 168.800 C 268.000 169.467,267.733 169.600,266.400 169.600 C 265.067 169.600,264.800 169.733,264.800 170.400 C 264.800 171.067,264.533 171.200,263.200 171.200 C 261.867 171.200,261.600 171.333,261.600 172.000 C 261.600 172.533,261.333 172.800,260.800 172.800 C 260.267 172.800,260.000 173.067,260.000 173.600 C 260.000 174.248,259.733 174.400,258.600 174.400 C 257.622 174.400,257.200 174.581,257.200 175.000 C 257.200 175.433,256.756 175.600,255.600 175.600 C 254.267 175.600,254.000 175.733,254.000 176.400 C 254.000 177.067,253.733 177.200,252.400 177.200 C 251.067 177.200,250.800 177.333,250.800 178.000 C 250.800 178.533,250.533 178.800,250.000 178.800 C 249.467 178.800,249.200 179.067,249.200 179.600 C 249.200 180.267,248.933 180.400,247.600 180.400 C 246.267 180.400,246.000 180.533,246.000 181.200 C 246.000 181.867,245.733 182.000,244.400 182.000 C 243.067 182.000,242.800 182.133,242.800 182.800 C 242.800 183.448,242.533 183.600,241.400 183.600 C 240.267 183.600,240.000 183.752,240.000 184.400 C 240.000 184.933,239.733 185.200,239.200 185.200 C 238.667 185.200,238.400 185.467,238.400 186.000 C 238.400 186.667,238.133 186.800,236.800 186.800 C 235.467 186.800,235.200 186.933,235.200 187.600 C 235.200 188.267,234.933 188.400,233.600 188.400 C 232.267 188.400,232.000 188.533,232.000 189.200 C 232.000 189.867,231.733 190.000,230.400 190.000 C 229.067 190.000,228.800 190.133,228.800 190.800 C 228.800 191.333,228.533 191.600,228.000 191.600 C 227.556 191.600,227.200 191.867,227.200 192.200 C 227.200 192.619,226.778 192.800,225.800 192.800 C 224.667 192.800,224.400 192.952,224.400 193.600 C 224.400 194.267,224.133 194.400,222.800 194.400 C 221.467 194.400,221.200 194.533,221.200 195.200 C 221.200 195.733,220.933 196.000,220.400 196.000 C 219.867 196.000,219.600 196.267,219.600 196.800 C 219.600 197.467,219.333 197.600,218.000 197.600 C 216.667 197.600,216.400 197.733,216.400 198.400 C 216.400 199.067,216.133 199.200,214.800 199.200 C 213.467 199.200,213.200 199.333,213.200 200.000 C 213.200 200.667,212.933 200.800,211.600 200.800 C 210.267 200.800,210.000 200.933,210.000 201.600 C 210.000 202.133,209.733 202.400,209.200 202.400 C 208.667 202.400,208.400 202.667,208.400 203.200 C 208.400 204.369,206.178 204.300,205.177 203.100 C 204.764 202.605,204.421 202.410,204.413 202.667 C 204.391 203.443,216.320 215.200,217.129 215.200 C 217.537 215.200,218.935 214.123,220.235 212.807 C 237.545 195.287,240.584 192.865,248.600 190.198 C 253.197 188.669,264.541 188.414,267.276 189.778 C 267.890 190.084,268.958 190.459,269.651 190.611 C 274.505 191.677,279.760 195.626,289.200 205.300 C 292.610 208.794,313.171 229.506,334.891 251.327 L 374.381 291.000 374.391 326.839 C 374.401 364.802,374.475 363.085,372.682 366.250 C 370.554 370.005,369.412 371.532,368.109 372.361 C 367.279 372.889,366.112 373.654,365.516 374.061 C 364.467 374.777,359.275 374.800,200.755 374.800 L 37.077 374.800 34.839 373.741 C 31.904 372.353,27.671 368.107,26.287 365.161 L 25.235 362.923 25.222 200.630 C 25.209 42.945,25.230 38.290,25.957 36.669 C 26.368 35.751,26.838 34.564,27.001 34.032 C 27.469 32.503,32.831 27.384,34.563 26.812 C 35.396 26.537,36.555 26.063,37.139 25.757 C 38.040 25.285,62.622 25.217,200.200 25.301 L 362.200 25.400 364.388 26.400 M249.000 75.693 C 247.680 76.148,245.860 76.853,244.956 77.260 C 244.052 77.667,243.205 78.000,243.074 78.000 C 242.943 78.000,242.153 78.453,241.318 79.007 C 240.483 79.561,239.462 80.236,239.048 80.507 C 237.188 81.726,234.452 84.289,232.298 86.829 C 231.473 87.803,230.538 88.875,230.222 89.211 C 229.907 89.547,229.458 90.267,229.225 90.811 C 228.992 91.355,228.636 92.070,228.433 92.400 C 227.568 93.806,226.480 96.326,226.213 97.543 C 226.054 98.264,225.673 99.337,225.365 99.927 C 224.564 101.461,224.552 116.665,225.350 117.811 C 225.652 118.245,226.026 119.355,226.181 120.277 C 226.336 121.199,226.707 122.157,227.006 122.405 C 227.304 122.652,227.667 123.395,227.812 124.055 C 227.957 124.714,228.328 125.351,228.638 125.470 C 228.947 125.588,229.200 126.011,229.200 126.409 C 229.200 127.075,229.902 128.094,231.700 130.042 C 232.085 130.459,232.400 130.914,232.400 131.053 C 232.400 131.806,239.289 137.733,240.663 138.161 C 241.138 138.309,241.627 138.694,241.750 139.015 C 241.874 139.337,242.319 139.600,242.738 139.600 C 243.158 139.600,243.722 139.865,243.991 140.189 C 244.260 140.514,245.137 140.892,245.940 141.030 C 246.743 141.168,248.152 141.632,249.071 142.062 C 251.444 143.172,267.821 143.038,268.958 141.900 C 269.377 141.481,270.262 141.200,271.167 141.200 C 272.168 141.200,272.920 140.931,273.400 140.400 C 273.798 139.960,274.383 139.600,274.699 139.600 C 275.015 139.600,275.731 139.240,276.291 138.800 C 276.850 138.360,277.547 138.000,277.840 138.000 C 278.132 138.000,278.565 137.640,278.800 137.200 C 279.035 136.760,279.432 136.400,279.682 136.400 C 280.332 136.400,286.400 130.119,286.400 129.447 C 286.400 129.138,286.673 128.781,287.006 128.653 C 287.339 128.525,287.799 128.011,288.027 127.510 C 288.255 127.010,288.878 125.880,289.411 125.000 C 290.790 122.725,291.200 121.696,291.200 120.505 C 291.200 119.932,291.515 119.115,291.900 118.689 C 292.522 118.000,292.600 116.930,292.600 109.039 C 292.600 101.260,292.514 100.032,291.900 99.096 C 291.515 98.509,291.200 97.674,291.200 97.240 C 291.200 96.295,290.714 95.147,289.406 93.000 C 288.870 92.120,288.227 90.905,287.977 90.300 C 287.726 89.695,287.354 89.200,287.148 89.200 C 286.943 89.200,286.659 88.885,286.517 88.500 C 286.376 88.115,285.886 87.440,285.429 87.000 C 284.972 86.560,284.238 85.745,283.799 85.188 C 282.860 84.000,277.866 79.956,276.347 79.155 C 268.824 75.186,267.207 74.793,258.572 74.833 C 252.419 74.861,251.059 74.984,249.000 75.693 M266.400 76.000 C 267.777 76.440,269.151 76.800,269.454 76.800 C 269.756 76.800,270.675 77.160,271.496 77.600 C 272.316 78.040,273.171 78.401,273.394 78.403 C 273.817 78.406,278.511 81.357,279.750 82.400 C 285.184 86.972,288.590 92.161,291.041 99.600 C 292.046 102.651,292.333 113.234,291.483 115.929 C 291.159 116.958,290.772 118.340,290.623 119.000 C 290.353 120.201,289.072 123.270,288.371 124.400 C 288.166 124.730,287.808 125.444,287.576 125.987 C 286.334 128.890,278.890 136.334,275.987 137.576 C 275.444 137.808,274.730 138.166,274.400 138.371 C 268.839 141.825,256.133 143.192,249.600 141.041 C 242.058 138.556,237.090 135.294,232.400 129.747 C 231.428 128.597,228.406 123.831,228.403 123.444 C 228.401 123.248,228.057 122.348,227.637 121.444 C 225.083 115.939,224.303 106.111,226.000 100.800 C 226.440 99.423,226.806 98.094,226.814 97.848 C 226.821 97.602,227.175 96.680,227.600 95.800 C 228.025 94.920,228.380 94.020,228.389 93.800 C 228.519 90.605,239.391 79.915,244.155 78.298 C 244.840 78.065,245.755 77.633,246.189 77.337 C 246.623 77.042,247.343 76.788,247.789 76.774 C 248.235 76.759,249.590 76.411,250.800 76.000 C 254.061 74.893,262.934 74.893,266.400 76.000 " stroke="none" fill="#7792e4" fill-rule="evenodd"></path></g></svg>