<svg id="svg" version="1.1" xmlns="http://www.w3.org/2000/svg" xmlns:xlink="http://www.w3.org/1999/xlink" width="400" height="300.40816326530614" viewBox="0, 0, 400,300.40816326530614"><g id="svgg"><path id="path0" d="M40.947 0.215 C 41.401 0.284,42.145 0.284,42.600 0.215 C 43.054 0.146,42.682 0.090,41.773 0.090 C 40.864 0.090,40.492 0.146,40.947 0.215 M357.705 0.216 C 358.162 0.285,358.838 0.283,359.208 0.212 C 359.577 0.140,359.204 0.084,358.377 0.086 C 357.551 0.088,357.248 0.147,357.705 0.216 M34.560 0.902 C 34.560 1.067,34.831 1.202,35.162 1.202 C 35.492 1.202,35.763 1.067,35.763 0.902 C 35.763 0.736,35.492 0.601,35.162 0.601 C 34.831 0.601,34.560 0.736,34.560 0.902 M364.237 0.902 C 364.237 1.067,364.508 1.202,364.838 1.202 C 365.169 1.202,365.440 1.067,365.440 0.902 C 365.440 0.736,365.169 0.601,364.838 0.601 C 364.508 0.601,364.237 0.736,364.237 0.902 M32.908 1.202 C 32.805 1.367,33.000 1.503,33.341 1.503 C 33.681 1.503,33.959 1.367,33.959 1.202 C 33.959 1.037,33.765 0.902,33.526 0.902 C 33.288 0.902,33.010 1.037,32.908 1.202 M366.041 1.202 C 366.041 1.367,366.311 1.503,366.642 1.503 C 366.972 1.503,367.243 1.367,367.243 1.202 C 367.243 1.037,366.972 0.902,366.642 0.902 C 366.311 0.902,366.041 1.037,366.041 1.202 M30.053 2.104 C 30.053 2.269,30.255 2.404,30.503 2.404 C 30.751 2.404,30.954 2.269,30.954 2.104 C 30.954 1.938,30.751 1.803,30.503 1.803 C 30.255 1.803,30.053 1.938,30.053 2.104 M372.352 3.271 C 372.352 3.529,373.475 4.005,373.929 3.939 C 374.053 3.921,374.155 4.042,374.155 4.207 C 374.155 4.373,374.290 4.508,374.455 4.508 C 375.073 4.508,374.727 3.911,374.005 3.730 C 373.591 3.626,373.253 3.421,373.253 3.273 C 373.253 3.126,373.050 3.005,372.802 3.005 C 372.554 3.005,372.352 3.125,372.352 3.271 M25.553 3.895 C 25.310 4.049,25.227 4.283,25.369 4.416 C 25.511 4.549,25.688 4.488,25.762 4.281 C 25.836 4.073,26.011 3.974,26.151 4.060 C 26.290 4.147,26.490 4.080,26.594 3.912 C 26.829 3.531,26.147 3.520,25.553 3.895 M22.911 5.120 C 22.537 5.270,22.064 5.534,21.859 5.707 C 20.509 6.849,20.017 7.213,19.821 7.213 C 19.699 7.213,19.520 7.417,19.424 7.666 C 19.272 8.063,20.775 7.221,21.337 6.595 C 21.420 6.502,21.927 6.249,22.464 6.032 C 23.002 5.815,23.441 5.510,23.441 5.355 C 23.441 5.200,23.576 5.157,23.742 5.259 C 23.907 5.361,24.042 5.302,24.042 5.127 C 24.042 4.752,23.830 4.751,22.911 5.120 M376.258 5.126 C 376.506 5.364,377.115 5.762,377.611 6.010 C 378.107 6.258,378.580 6.528,378.663 6.611 C 379.681 7.632,381.473 8.460,380.616 7.513 C 380.317 7.183,379.952 6.912,379.806 6.912 C 379.659 6.912,379.376 6.774,379.176 6.606 C 377.807 5.452,377.341 5.109,377.139 5.109 C 377.012 5.109,376.661 5.015,376.358 4.900 C 375.872 4.716,375.860 4.742,376.258 5.126 M17.768 8.498 C 16.125 9.287,9.753 15.627,10.603 15.627 C 10.649 15.627,11.913 14.444,13.411 12.998 C 16.569 9.948,17.945 8.731,18.083 8.862 C 18.137 8.913,18.356 8.766,18.569 8.535 C 19.028 8.037,18.753 8.025,17.768 8.498 M382.119 8.887 C 382.615 9.311,383.426 10.005,383.922 10.428 C 384.418 10.852,385.954 12.296,387.336 13.638 C 388.718 14.980,389.679 15.746,389.471 15.340 C 388.978 14.375,383.675 9.306,382.306 8.490 C 381.258 7.865,381.162 8.068,382.119 8.887 M9.241 16.647 C 8.713 17.048,8.520 17.739,8.941 17.722 C 9.065 17.716,9.409 17.378,9.706 16.970 C 10.293 16.164,10.076 16.013,9.241 16.647 M390.083 16.451 C 390.083 16.577,390.433 17.085,390.860 17.581 C 391.288 18.077,391.751 18.684,391.889 18.931 C 392.028 19.177,392.243 19.277,392.367 19.153 C 392.492 19.029,392.299 18.652,391.939 18.317 C 391.579 17.982,391.285 17.543,391.285 17.341 C 391.285 17.139,391.014 16.805,390.684 16.599 C 390.353 16.392,390.083 16.326,390.083 16.451 M47.784 17.130 C 48.416 17.538,352.114 17.538,352.367 17.130 C 352.490 16.930,301.607 16.831,199.943 16.834 C 101.306 16.837,47.492 16.942,47.784 17.130 M41.773 17.431 C 41.422 17.658,41.505 17.723,42.149 17.726 C 42.603 17.729,42.975 17.596,42.975 17.431 C 42.975 17.051,42.361 17.051,41.773 17.431 M357.025 17.431 C 357.025 17.596,357.371 17.731,357.794 17.731 C 358.230 17.731,358.483 17.601,358.377 17.431 C 358.275 17.265,357.929 17.130,357.608 17.130 C 357.287 17.130,357.025 17.265,357.025 17.431 M36.965 18.332 C 36.965 18.497,37.235 18.633,37.566 18.633 C 37.896 18.633,38.167 18.497,38.167 18.332 C 38.167 18.167,37.896 18.032,37.566 18.032 C 37.235 18.032,36.965 18.167,36.965 18.332 M362.134 18.332 C 362.134 18.497,362.337 18.633,362.585 18.633 C 362.832 18.633,363.035 18.497,363.035 18.332 C 363.035 18.167,362.832 18.032,362.585 18.032 C 362.337 18.032,362.134 18.167,362.134 18.332 M7.814 18.633 C 7.575 18.780,7.480 19.000,7.602 19.122 C 7.724 19.244,7.981 19.186,8.174 18.993 C 8.628 18.539,8.375 18.286,7.814 18.633 M35.612 18.633 C 35.510 18.798,35.713 18.933,36.063 18.933 C 36.413 18.933,36.616 18.798,36.514 18.633 C 36.412 18.467,36.209 18.332,36.063 18.332 C 35.917 18.332,35.714 18.467,35.612 18.633 M365.139 19.234 C 365.139 19.399,365.342 19.534,365.590 19.534 C 365.838 19.534,366.041 19.399,366.041 19.234 C 366.041 19.068,365.838 18.933,365.590 18.933 C 365.342 18.933,365.139 19.068,365.139 19.234 M6.912 19.835 C 6.674 19.982,6.578 20.202,6.700 20.324 C 6.822 20.446,7.080 20.388,7.273 20.195 C 7.727 19.741,7.473 19.488,6.912 19.835 M392.556 19.891 C 392.705 20.340,393.388 20.587,393.388 20.192 C 393.388 20.031,393.174 19.817,392.913 19.716 C 392.620 19.604,392.482 19.671,392.556 19.891 M30.954 20.453 C 30.954 20.629,30.851 20.708,30.725 20.630 C 30.600 20.553,30.236 20.680,29.917 20.913 C 29.219 21.424,29.360 21.443,30.609 21.007 C 31.499 20.697,31.915 20.135,31.255 20.135 C 31.089 20.135,30.954 20.278,30.954 20.453 M369.346 20.704 C 369.346 20.852,369.560 21.055,369.822 21.155 C 370.557 21.437,370.630 21.376,370.141 20.887 C 369.630 20.376,369.346 20.311,369.346 20.704 M6.093 21.262 C 5.984 21.551,5.717 21.967,5.501 22.185 C 5.028 22.665,4.991 23.140,5.427 23.140 C 5.602 23.140,5.662 23.005,5.560 22.840 C 5.458 22.675,5.488 22.539,5.627 22.539 C 5.767 22.539,6.121 22.134,6.414 21.638 C 6.723 21.114,6.809 20.736,6.619 20.736 C 6.439 20.736,6.203 20.973,6.093 21.262 M393.586 21.638 C 393.879 22.134,394.233 22.539,394.373 22.539 C 394.512 22.539,394.542 22.675,394.440 22.840 C 394.338 23.005,394.398 23.140,394.573 23.140 C 395.009 23.140,394.972 22.665,394.499 22.185 C 394.283 21.967,394.016 21.551,393.907 21.262 C 393.797 20.973,393.561 20.736,393.381 20.736 C 393.191 20.736,393.277 21.114,393.586 21.638 M27.810 22.086 C 27.321 22.486,27.035 22.921,27.175 23.052 C 27.315 23.183,27.493 23.113,27.571 22.896 C 27.648 22.678,28.035 22.377,28.431 22.227 C 28.827 22.076,29.151 21.815,29.151 21.645 C 29.151 21.171,28.782 21.292,27.810 22.086 M370.849 21.645 C 370.849 21.815,371.187 22.082,371.600 22.239 C 372.014 22.396,372.352 22.663,372.352 22.833 C 372.352 23.002,372.540 23.140,372.769 23.140 C 373.245 23.140,376.860 26.665,376.860 27.128 C 376.860 27.456,377.756 28.224,378.157 28.240 C 378.588 28.257,375.548 24.591,374.455 23.777 C 373.877 23.346,373.336 22.925,373.253 22.842 C 372.335 21.913,370.849 21.174,370.849 21.645 M24.718 24.581 C 24.098 25.208,23.321 26.102,22.990 26.568 C 22.660 27.033,22.249 27.569,22.077 27.757 C 21.019 28.919,19.857 31.555,20.403 31.555 C 20.573 31.555,20.874 31.014,21.072 30.353 C 21.270 29.692,21.550 29.151,21.693 29.151 C 21.836 29.151,22.082 28.813,22.239 28.400 C 22.396 27.986,22.663 27.648,22.833 27.648 C 23.002 27.648,23.140 27.469,23.140 27.250 C 23.140 27.031,23.902 26.084,24.832 25.146 C 25.763 24.208,26.371 23.441,26.185 23.441 C 25.998 23.441,25.338 23.954,24.718 24.581 M394.891 23.500 C 394.891 23.998,395.595 25.545,395.822 25.545 C 396.290 25.545,396.118 24.764,395.492 24.042 C 395.162 23.661,394.891 23.417,394.891 23.500 M4.011 24.806 C 3.767 25.441,4.173 25.783,4.520 25.235 C 4.888 24.654,4.880 24.343,4.498 24.343 C 4.328 24.343,4.108 24.551,4.011 24.806 M378.062 28.850 C 378.062 29.016,378.175 29.151,378.315 29.151 C 378.454 29.151,378.730 29.692,378.928 30.353 C 379.126 31.014,379.418 31.555,379.576 31.555 C 379.735 31.555,379.865 31.758,379.865 32.006 C 379.865 32.254,380.000 32.457,380.165 32.457 C 380.586 32.457,380.575 32.422,379.530 30.379 C 378.679 28.716,378.062 28.074,378.062 28.850 M0.902 32.908 C 0.902 33.156,1.037 33.358,1.202 33.358 C 1.367 33.358,1.503 33.156,1.503 32.908 C 1.503 32.660,1.367 32.457,1.202 32.457 C 1.037 32.457,0.902 32.660,0.902 32.908 M398.497 32.908 C 398.497 33.156,398.633 33.358,398.798 33.358 C 398.963 33.358,399.098 33.156,399.098 32.908 C 399.098 32.660,398.963 32.457,398.798 32.457 C 398.633 32.457,398.497 32.660,398.497 32.908 M0.601 34.711 C 0.601 34.959,0.736 35.162,0.902 35.162 C 1.067 35.162,1.202 34.959,1.202 34.711 C 1.202 34.463,1.067 34.260,0.902 34.260 C 0.736 34.260,0.601 34.463,0.601 34.711 M18.332 35.612 C 18.332 35.860,18.467 36.063,18.633 36.063 C 18.798 36.063,18.933 35.860,18.933 35.612 C 18.933 35.364,18.798 35.162,18.633 35.162 C 18.467 35.162,18.332 35.364,18.332 35.612 M0.310 36.529 C 0.318 37.306,0.359 37.347,0.641 36.861 C 0.872 36.463,0.870 36.212,0.632 35.974 C 0.390 35.732,0.303 35.882,0.310 36.529 M399.304 35.988 C 399.232 36.112,399.282 36.484,399.415 36.814 C 399.627 37.339,399.660 37.311,399.678 36.589 C 399.699 35.774,399.559 35.548,399.304 35.988 M18.032 36.814 C 18.032 37.062,18.167 37.265,18.332 37.265 C 18.497 37.265,18.633 37.062,18.633 36.814 C 18.633 36.566,18.497 36.364,18.332 36.364 C 18.167 36.364,18.032 36.566,18.032 36.814 M381.367 36.814 C 381.367 37.062,381.503 37.265,381.668 37.265 C 381.833 37.265,381.968 37.062,381.968 36.814 C 381.968 36.566,381.833 36.364,381.668 36.364 C 381.503 36.364,381.367 36.566,381.367 36.814 M382.269 41.004 C 382.269 41.427,382.404 41.773,382.569 41.773 C 382.735 41.773,382.870 41.511,382.870 41.190 C 382.870 40.869,382.735 40.523,382.569 40.421 C 382.399 40.315,382.269 40.568,382.269 41.004 M17.290 40.960 C 17.161 41.256,17.140 41.583,17.243 41.686 C 17.548 41.991,17.794 41.562,17.654 40.970 C 17.529 40.445,17.513 40.445,17.290 40.960 M71.648 41.696 C 71.951 41.999,78.437 42.014,78.437 41.712 C 78.437 41.581,76.860 41.473,74.931 41.473 C 73.003 41.473,71.525 41.573,71.648 41.696 M68.520 42.074 C 68.520 42.239,68.790 42.374,69.121 42.374 C 69.452 42.374,69.722 42.239,69.722 42.074 C 69.722 41.908,69.452 41.773,69.121 41.773 C 68.790 41.773,68.520 41.908,68.520 42.074 M80.240 42.074 C 80.240 42.239,80.511 42.374,80.841 42.374 C 81.172 42.374,81.443 42.239,81.443 42.074 C 81.443 41.908,81.172 41.773,80.841 41.773 C 80.511 41.773,80.240 41.908,80.240 42.074 M65.214 42.975 C 65.214 43.140,65.417 43.276,65.665 43.276 C 65.913 43.276,66.116 43.140,66.116 42.975 C 66.116 42.810,65.913 42.675,65.665 42.675 C 65.417 42.675,65.214 42.810,65.214 42.975 M85.349 43.276 C 85.349 43.441,85.552 43.576,85.800 43.576 C 86.048 43.576,86.251 43.441,86.251 43.276 C 86.251 43.110,86.048 42.975,85.800 42.975 C 85.552 42.975,85.349 43.110,85.349 43.276 M382.569 44.929 C 382.569 45.672,382.705 46.281,382.870 46.281 C 383.035 46.281,383.171 45.672,383.171 44.929 C 383.171 44.185,383.035 43.576,382.870 43.576 C 382.705 43.576,382.569 44.185,382.569 44.929 M16.829 45.963 C 16.829 47.177,16.958 48.084,17.130 48.084 C 17.299 48.084,17.431 47.239,17.431 46.148 C 17.431 45.084,17.295 44.129,17.130 44.027 C 16.940 43.910,16.829 44.625,16.829 45.963 M59.955 44.847 C 59.107 45.150,58.504 45.682,58.741 45.919 C 58.800 45.977,59.501 45.677,60.300 45.251 C 61.774 44.467,61.598 44.260,59.955 44.847 M91.798 46.245 C 92.288 46.581,92.752 46.792,92.830 46.714 C 93.053 46.491,92.486 46.068,91.660 45.841 C 90.955 45.647,90.964 45.672,91.798 46.245 M57.100 46.582 C 56.719 46.912,56.220 47.183,55.993 47.183 C 55.765 47.183,55.501 47.385,55.405 47.633 C 55.310 47.881,55.061 48.084,54.851 48.084 C 54.423 48.084,53.630 48.922,53.850 49.141 C 53.968 49.260,56.435 47.592,57.594 46.609 C 57.783 46.448,58.019 46.399,58.120 46.499 C 58.220 46.600,58.302 46.524,58.302 46.331 C 58.302 45.815,57.883 45.902,57.100 46.582 M93.724 47.449 C 94.084 47.760,94.847 48.335,95.421 48.726 C 95.995 49.117,96.466 49.533,96.467 49.651 C 96.468 49.769,96.756 50.020,97.106 50.207 C 97.622 50.483,97.698 50.471,97.503 50.143 C 97.044 49.371,96.017 48.395,95.657 48.390 C 95.459 48.387,95.188 48.202,95.056 47.978 C 94.818 47.574,93.701 46.882,93.287 46.882 C 93.168 46.882,93.365 47.137,93.724 47.449 M51.783 50.575 C 51.255 51.106,50.477 51.859,50.055 52.248 C 49.344 52.902,49.058 53.494,49.451 53.494 C 49.663 53.494,53.193 49.958,53.193 49.746 C 53.193 49.372,52.679 49.674,51.783 50.575 M100.037 53.121 C 100.458 53.908,101.551 54.822,101.788 54.586 C 101.902 54.472,101.554 53.977,101.016 53.486 C 99.898 52.464,99.632 52.365,100.037 53.121 M48.116 54.573 C 47.382 55.418,47.473 55.929,48.244 55.289 C 48.851 54.785,49.386 53.794,49.050 53.794 C 48.909 53.794,48.489 54.145,48.116 54.573 M101.878 55.250 C 101.878 55.378,102.149 55.774,102.479 56.129 C 102.810 56.484,103.080 56.855,103.080 56.953 C 103.080 57.051,103.418 57.629,103.832 58.237 C 104.245 58.846,104.583 59.264,104.583 59.168 C 104.583 58.693,103.894 57.100,103.689 57.100 C 103.559 57.100,103.290 56.704,103.089 56.220 C 102.753 55.409,101.878 54.708,101.878 55.250 M45.935 58.002 C 45.763 58.497,45.499 58.903,45.350 58.903 C 45.201 58.903,45.079 59.038,45.079 59.204 C 45.079 59.834,45.555 59.454,46.215 58.300 C 46.592 57.640,46.754 57.100,46.575 57.100 C 46.396 57.100,46.108 57.506,45.935 58.002 M274.039 58.607 C 273.768 58.765,273.079 59.336,272.507 59.876 C 271.935 60.415,271.062 61.206,270.568 61.633 C 269.499 62.556,268.948 63.326,269.644 62.923 C 270.066 62.679,273.389 59.837,274.258 58.978 C 274.813 58.430,275.009 58.494,276.311 59.653 C 276.959 60.230,277.563 60.629,277.652 60.540 C 277.914 60.278,275.597 58.301,275.040 58.311 C 274.760 58.316,274.309 58.450,274.039 58.607 M104.583 59.805 C 104.583 59.970,104.726 60.105,104.901 60.105 C 105.076 60.105,105.136 60.240,105.034 60.406 C 104.932 60.571,104.991 60.706,105.166 60.706 C 105.535 60.706,105.550 60.625,105.302 59.980 C 105.101 59.455,104.583 59.329,104.583 59.805 M278.287 61.250 C 278.287 61.526,281.443 64.313,281.756 64.313 C 281.867 64.313,281.215 63.569,280.306 62.660 C 278.686 61.040,278.287 60.761,278.287 61.250 M43.759 62.083 C 43.430 62.939,43.586 63.273,44.037 62.677 C 44.279 62.356,44.478 61.985,44.478 61.851 C 44.478 61.421,43.947 61.592,43.759 62.083 M267.643 64.020 C 267.161 64.512,266.838 64.985,266.926 65.073 C 267.113 65.259,268.971 63.688,268.971 63.344 C 268.971 62.899,268.516 63.131,267.643 64.020 M42.975 63.862 C 42.975 64.110,43.110 64.313,43.276 64.313 C 43.441 64.313,43.576 64.110,43.576 63.862 C 43.576 63.614,43.441 63.411,43.276 63.411 C 43.110 63.411,42.975 63.614,42.975 63.862 M106.687 64.463 C 106.687 64.711,106.822 64.914,106.987 64.914 C 107.153 64.914,107.288 64.711,107.288 64.463 C 107.288 64.215,107.153 64.012,106.987 64.012 C 106.822 64.012,106.687 64.215,106.687 64.463 M282.494 64.853 C 282.494 65.107,284.339 66.904,285.349 67.635 C 285.917 68.045,285.925 68.037,285.500 67.494 C 284.212 65.850,282.494 64.341,282.494 64.853 M106.987 65.665 C 106.987 65.913,107.122 66.116,107.288 66.116 C 107.453 66.116,107.588 65.913,107.588 65.665 C 107.588 65.417,107.453 65.214,107.288 65.214 C 107.122 65.214,106.987 65.417,106.987 65.665 M265.611 65.740 C 264.748 66.669,263.633 67.618,263.404 67.618 C 263.282 67.618,262.735 68.092,262.189 68.670 C 261.644 69.249,261.078 69.722,260.932 69.722 C 260.786 69.722,260.266 70.175,259.776 70.728 C 259.287 71.281,258.604 71.884,258.260 72.068 C 257.916 72.252,257.152 72.848,256.563 73.392 C 255.974 73.935,255.104 74.719,254.631 75.134 C 253.750 75.905,253.183 76.634,253.466 76.634 C 253.553 76.634,254.279 76.059,255.079 75.357 C 255.880 74.654,257.186 73.539,257.983 72.878 C 258.779 72.216,259.583 71.540,259.769 71.375 C 261.804 69.573,265.016 66.848,265.703 66.340 C 266.534 65.726,266.820 65.214,266.333 65.214 C 266.204 65.214,265.879 65.451,265.611 65.740 M41.773 68.219 C 41.773 68.550,41.908 68.820,42.074 68.820 C 42.239 68.820,42.374 68.550,42.374 68.219 C 42.374 67.889,42.239 67.618,42.074 67.618 C 41.908 67.618,41.773 67.889,41.773 68.219 M107.889 69.121 C 107.889 69.452,108.024 69.722,108.189 69.722 C 108.355 69.722,108.490 69.452,108.490 69.121 C 108.490 68.790,108.355 68.520,108.189 68.520 C 108.024 68.520,107.889 68.790,107.889 69.121 M287.475 69.654 C 289.181 71.214,290.008 71.855,290.008 71.617 C 290.008 71.255,287.015 68.520,286.628 68.527 C 286.420 68.532,286.802 69.039,287.475 69.654 M41.473 70.774 C 41.473 71.222,41.602 71.481,41.773 71.375 C 41.938 71.273,42.074 71.002,42.074 70.774 C 42.074 70.545,41.938 70.275,41.773 70.173 C 41.602 70.067,41.473 70.326,41.473 70.774 M108.194 72.201 C 108.196 72.739,108.330 73.381,108.490 73.629 C 108.701 73.955,108.782 73.685,108.786 72.652 C 108.788 71.867,108.655 71.225,108.490 71.225 C 108.325 71.225,108.191 71.664,108.194 72.201 M290.609 72.374 C 290.609 72.511,291.097 73.018,291.694 73.501 C 292.291 73.985,293.034 74.641,293.344 74.959 C 293.654 75.278,294.010 75.437,294.134 75.312 C 294.258 75.188,294.133 74.959,293.856 74.804 C 293.578 74.649,292.823 73.983,292.177 73.324 C 291.015 72.139,290.609 71.893,290.609 72.374 M294.515 75.877 C 294.515 76.065,297.165 78.517,297.705 78.828 C 298.403 79.230,298.186 78.916,296.644 77.290 C 295.365 75.943,294.515 75.378,294.515 75.877 M108.372 77.109 C 108.082 77.865,108.160 79.339,108.490 79.339 C 108.655 79.339,108.790 78.730,108.790 77.986 C 108.790 76.564,108.674 76.321,108.372 77.109 M251.766 77.494 C 250.606 78.677,250.736 78.925,251.991 77.924 C 252.989 77.128,253.314 76.624,252.817 76.642 C 252.693 76.647,252.220 77.030,251.766 77.494 M249.327 79.530 C 248.891 79.966,248.535 80.447,248.535 80.600 C 248.535 80.752,248.400 80.793,248.234 80.691 C 248.069 80.589,247.934 80.649,247.934 80.824 C 247.934 80.999,247.781 81.142,247.594 81.142 C 247.407 81.142,246.807 81.615,246.262 82.194 C 245.716 82.772,245.159 83.247,245.024 83.249 C 244.715 83.253,242.825 85.182,242.825 85.493 C 242.825 85.721,246.930 82.356,248.568 80.786 C 248.858 80.508,249.443 80.053,249.867 79.775 C 250.624 79.279,250.891 78.738,250.379 78.738 C 250.236 78.738,249.763 79.094,249.327 79.530 M41.473 79.772 C 41.473 80.195,41.608 80.541,41.773 80.541 C 41.938 80.541,42.074 80.278,42.074 79.958 C 42.074 79.637,41.938 79.291,41.773 79.189 C 41.603 79.083,41.473 79.336,41.473 79.772 M298.723 79.599 C 298.723 79.917,301.729 82.645,302.079 82.645 C 302.216 82.645,301.602 81.901,300.715 80.992 C 299.128 79.366,298.723 79.083,298.723 79.599 M107.889 81.142 C 107.889 81.473,108.024 81.743,108.189 81.743 C 108.355 81.743,108.490 81.473,108.490 81.142 C 108.490 80.811,108.355 80.541,108.189 80.541 C 108.024 80.541,107.889 80.811,107.889 81.142 M41.773 82.194 C 41.773 82.442,41.908 82.645,42.074 82.645 C 42.239 82.645,42.374 82.442,42.374 82.194 C 42.374 81.946,42.239 81.743,42.074 81.743 C 41.908 81.743,41.773 81.946,41.773 82.194 M107.497 83.063 C 107.374 83.376,107.344 83.703,107.431 83.790 C 107.705 84.064,107.946 83.614,107.831 83.044 C 107.726 82.521,107.710 82.522,107.497 83.063 M302.930 83.483 C 302.930 83.721,305.096 85.609,305.935 86.102 C 306.564 86.471,305.848 85.575,304.445 84.237 C 303.422 83.261,302.930 83.016,302.930 83.483 M42.675 85.500 C 42.675 85.748,42.810 85.950,42.975 85.950 C 43.140 85.950,43.276 85.748,43.276 85.500 C 43.276 85.252,43.140 85.049,42.975 85.049 C 42.810 85.049,42.675 85.252,42.675 85.500 M240.727 86.777 C 240.054 87.397,238.966 88.411,238.309 89.031 C 237.652 89.651,236.998 90.158,236.855 90.158 C 236.520 90.158,235.011 91.664,235.011 91.999 C 235.011 92.271,235.685 91.780,237.328 90.308 C 237.881 89.812,239.270 88.663,240.413 87.754 C 241.556 86.844,242.499 85.999,242.508 85.875 C 242.544 85.376,241.887 85.708,240.727 86.777 M42.975 86.702 C 42.975 86.950,43.110 87.153,43.276 87.153 C 43.441 87.153,43.576 86.950,43.576 86.702 C 43.576 86.454,43.441 86.251,43.276 86.251 C 43.110 86.251,42.975 86.454,42.975 86.702 M306.854 87.077 C 306.878 87.380,310.243 90.158,310.398 90.003 C 310.556 89.845,307.406 86.852,307.082 86.852 C 306.947 86.852,306.845 86.953,306.854 87.077 M105.785 88.180 C 105.785 88.414,105.691 88.854,105.577 89.156 C 105.381 89.672,105.400 89.675,105.877 89.203 C 106.434 88.650,106.563 87.754,106.086 87.754 C 105.920 87.754,105.785 87.945,105.785 88.180 M44.009 89.142 C 44.118 89.575,44.403 90.126,44.643 90.366 C 44.883 90.606,45.079 90.980,45.079 91.199 C 45.079 91.417,45.272 91.670,45.508 91.761 C 45.860 91.896,45.882 91.767,45.629 91.042 C 45.459 90.555,45.209 90.158,45.073 90.158 C 44.937 90.158,44.737 89.752,44.628 89.256 C 44.519 88.760,44.291 88.355,44.121 88.355 C 43.937 88.355,43.892 88.675,44.009 89.142 M104.718 90.533 C 104.605 90.905,104.316 91.433,104.077 91.706 C 103.785 92.039,103.747 92.267,103.962 92.400 C 104.138 92.508,104.282 92.464,104.282 92.301 C 104.282 92.137,104.468 91.819,104.694 91.593 C 105.244 91.043,105.606 89.857,105.225 89.857 C 105.059 89.857,104.831 90.162,104.718 90.533 M311.044 90.722 C 311.044 90.868,311.788 91.622,312.697 92.398 C 314.736 94.140,314.824 93.953,312.903 91.960 C 311.483 90.487,311.044 90.195,311.044 90.722 M233.509 92.889 C 233.095 93.385,232.712 93.921,232.657 94.080 C 232.601 94.239,232.411 94.280,232.234 94.170 C 232.031 94.045,232.002 94.116,232.156 94.364 C 232.351 94.681,232.462 94.671,232.728 94.313 C 232.909 94.069,233.430 93.627,233.884 93.331 C 234.339 93.035,234.711 92.606,234.711 92.377 C 234.711 91.738,234.333 91.899,233.509 92.889 M46.084 92.662 C 46.192 92.964,46.281 93.322,46.281 93.456 C 46.281 93.590,46.484 93.778,46.732 93.873 C 47.374 94.119,47.289 93.674,46.535 92.833 C 46.048 92.291,45.936 92.248,46.084 92.662 M102.780 93.741 C 102.780 93.894,102.425 94.440,101.991 94.956 C 101.120 95.991,101.253 96.630,102.141 95.677 C 103.147 94.597,103.628 93.464,103.080 93.464 C 102.915 93.464,102.780 93.588,102.780 93.741 M314.951 94.261 C 314.951 94.508,317.328 96.693,318.032 97.093 C 318.870 97.569,318.660 97.256,317.038 95.608 C 315.651 94.199,314.951 93.747,314.951 94.261 M47.183 94.655 C 47.183 94.815,47.463 95.095,47.806 95.279 C 48.377 95.584,48.402 95.560,48.096 94.989 C 47.753 94.348,47.183 94.139,47.183 94.655 M230.402 95.567 C 229.934 96.063,229.428 96.469,229.278 96.469 C 228.916 96.469,227.152 98.326,227.338 98.512 C 227.474 98.648,228.643 97.746,231.104 95.605 C 231.752 95.042,231.983 94.685,231.705 94.678 C 231.456 94.671,230.870 95.071,230.402 95.567 M48.385 96.157 C 48.385 96.507,49.597 97.671,49.962 97.671 C 50.106 97.671,50.140 97.806,50.038 97.971 C 49.935 98.137,49.995 98.272,50.170 98.272 C 50.687 98.272,50.526 97.882,49.582 96.844 C 48.656 95.826,48.385 95.671,48.385 96.157 M98.083 99.290 C 96.739 100.631,95.386 101.881,95.077 102.068 C 94.768 102.256,94.606 102.504,94.716 102.619 C 94.826 102.735,95.198 102.548,95.542 102.204 C 95.887 101.860,96.308 101.578,96.478 101.578 C 96.648 101.578,97.223 101.092,97.755 100.498 C 98.287 99.904,99.230 98.911,99.850 98.291 C 100.934 97.206,101.228 96.723,100.751 96.811 C 100.627 96.834,99.426 97.949,98.083 99.290 M319.159 97.944 C 319.159 98.280,322.127 100.977,322.497 100.977 C 322.644 100.977,322.015 100.233,321.099 99.324 C 319.397 97.635,319.159 97.466,319.159 97.944 M225.113 100.000 C 224.616 100.455,223.597 101.366,222.849 102.026 C 221.485 103.228,220.913 104.137,222.139 103.153 C 222.758 102.656,223.234 102.249,225.695 100.107 C 226.273 99.603,226.582 99.187,226.382 99.182 C 226.181 99.178,225.610 99.545,225.113 100.000 M52.592 100.307 C 52.592 100.668,53.759 101.878,54.106 101.878 C 54.265 101.878,54.395 101.743,54.395 101.578 C 54.395 101.412,54.285 101.277,54.151 101.277 C 54.017 101.277,53.612 101.001,53.250 100.664 C 52.888 100.327,52.592 100.167,52.592 100.307 M324.139 102.712 C 326.937 105.270,327.561 105.478,325.217 103.071 C 324.417 102.250,323.571 101.581,323.339 101.585 C 323.106 101.589,323.466 102.097,324.139 102.712 M55.053 102.498 C 55.125 102.715,55.362 102.952,55.579 103.024 C 55.804 103.099,55.917 102.986,55.841 102.761 C 55.769 102.544,55.532 102.307,55.316 102.235 C 55.090 102.160,54.977 102.273,55.053 102.498 M56.381 103.506 C 56.481 103.768,56.695 103.982,56.857 103.982 C 57.252 103.982,57.004 103.299,56.555 103.149 C 56.335 103.076,56.268 103.213,56.381 103.506 M92.562 103.681 C 92.324 103.829,92.228 104.049,92.350 104.171 C 92.472 104.293,92.730 104.235,92.923 104.042 C 93.377 103.588,93.123 103.335,92.562 103.681 M220.285 104.067 C 219.096 105.033,218.888 105.645,219.980 104.965 C 220.984 104.340,221.513 103.671,220.987 103.691 C 220.849 103.696,220.533 103.865,220.285 104.067 M58.302 104.583 C 58.302 104.757,58.671 105.039,59.122 105.210 C 59.574 105.382,60.014 105.638,60.102 105.780 C 60.365 106.206,61.908 106.494,61.908 106.118 C 61.908 105.935,61.738 105.785,61.530 105.785 C 61.322 105.785,60.511 105.444,59.727 105.026 C 58.943 104.609,58.302 104.410,58.302 104.583 M91.360 104.601 C 91.360 104.776,91.225 104.835,91.059 104.733 C 90.894 104.631,90.759 104.691,90.759 104.866 C 90.759 105.234,90.840 105.250,91.486 105.002 C 92.010 104.800,92.136 104.282,91.660 104.282 C 91.495 104.282,91.360 104.426,91.360 104.601 M327.323 105.415 C 327.528 105.888,330.594 108.575,330.750 108.418 C 330.949 108.219,327.906 105.184,327.507 105.184 C 327.351 105.184,327.268 105.288,327.323 105.415 M217.709 106.192 C 216.832 107.099,216.466 107.750,217.008 107.440 C 217.695 107.047,218.783 106.001,218.783 105.733 C 218.783 105.329,218.375 105.504,217.709 106.192 M88.054 106.103 C 88.054 106.278,87.928 106.344,87.774 106.249 C 87.620 106.154,87.410 106.213,87.306 106.381 C 87.094 106.725,87.468 106.777,88.180 106.504 C 88.704 106.303,88.830 105.785,88.355 105.785 C 88.189 105.785,88.054 105.928,88.054 106.103 M63.110 106.987 C 63.110 107.153,63.313 107.288,63.561 107.288 C 63.809 107.288,64.012 107.153,64.012 106.987 C 64.012 106.822,63.809 106.687,63.561 106.687 C 63.313 106.687,63.110 106.822,63.110 106.987 M85.950 106.987 C 85.950 107.153,86.153 107.288,86.401 107.288 C 86.649 107.288,86.852 107.153,86.852 106.987 C 86.852 106.822,86.649 106.687,86.401 106.687 C 86.153 106.687,85.950 106.822,85.950 106.987 M64.313 107.288 C 64.313 107.453,64.515 107.588,64.763 107.588 C 65.011 107.588,65.214 107.453,65.214 107.288 C 65.214 107.122,65.011 106.987,64.763 106.987 C 64.515 106.987,64.313 107.122,64.313 107.288 M67.618 108.189 C 67.618 108.355,67.821 108.490,68.069 108.490 C 68.317 108.490,68.520 108.355,68.520 108.189 C 68.520 108.024,68.317 107.889,68.069 107.889 C 67.821 107.889,67.618 108.024,67.618 108.189 M81.593 108.189 C 81.695 108.355,81.973 108.490,82.212 108.490 C 82.450 108.490,82.645 108.355,82.645 108.189 C 82.645 108.024,82.366 107.889,82.026 107.889 C 81.686 107.889,81.491 108.024,81.593 108.189 M214.607 108.959 C 214.046 109.527,213.477 109.992,213.343 109.992 C 213.094 109.992,212.074 110.951,211.270 111.941 C 210.600 112.765,211.785 112.097,212.990 110.971 C 213.493 110.502,214.394 109.744,214.991 109.288 C 215.589 108.832,216.078 108.331,216.078 108.174 C 216.078 107.672,215.654 107.899,214.607 108.959 M69.722 108.490 C 69.722 108.655,70.094 108.788,70.548 108.786 C 71.192 108.782,71.275 108.717,70.924 108.490 C 70.336 108.110,69.722 108.110,69.722 108.490 M79.189 108.490 C 79.083 108.660,79.336 108.790,79.772 108.790 C 80.195 108.790,80.541 108.655,80.541 108.490 C 80.541 108.325,80.278 108.189,79.958 108.189 C 79.637 108.189,79.291 108.325,79.189 108.490 M331.480 109.031 C 331.480 109.283,333.758 111.519,334.410 111.908 C 335.161 112.355,334.754 111.772,333.287 110.297 C 331.792 108.794,331.480 108.576,331.480 109.031 M209.215 113.476 C 208.663 114.039,208.348 114.500,208.515 114.500 C 208.922 114.500,210.669 113.017,210.669 112.671 C 210.669 112.189,210.244 112.424,209.215 113.476 M335.387 112.649 C 335.387 112.973,337.121 114.552,338.261 115.266 C 338.835 115.626,338.554 115.221,337.455 114.108 C 335.802 112.433,335.387 112.140,335.387 112.649 M206.517 115.853 C 206.158 116.266,205.968 116.604,206.096 116.604 C 206.484 116.604,207.663 115.687,207.663 115.385 C 207.663 114.886,207.190 115.080,206.517 115.853 M339.594 116.535 C 339.594 116.662,340.270 117.302,341.097 117.956 C 341.923 118.611,342.600 119.259,342.600 119.396 C 342.600 119.533,342.729 119.564,342.888 119.466 C 343.047 119.368,342.480 118.616,341.629 117.796 C 340.152 116.372,339.594 116.026,339.594 116.535 M124.126 116.893 C 123.516 117.279,123.949 117.630,124.592 117.270 C 124.969 117.059,125.406 117.150,126.192 117.606 L 127.273 118.232 126.521 117.423 C 125.748 116.591,124.900 116.403,124.126 116.893 M204.185 117.612 C 203.209 118.621,202.962 119.138,203.645 118.743 C 204.404 118.304,205.560 117.301,205.560 117.082 C 205.560 116.699,204.776 117.001,204.185 117.612 M122.234 118.407 C 121.950 118.738,121.794 119.008,121.886 119.008 C 122.275 119.008,123.216 118.363,123.216 118.096 C 123.216 117.626,122.786 117.762,122.234 118.407 M127.423 118.391 C 127.423 118.547,128.201 119.296,129.151 120.055 C 130.101 120.814,131.328 121.849,131.877 122.354 C 132.427 122.859,132.965 123.184,133.073 123.075 C 133.182 122.966,132.800 122.491,132.225 122.019 C 131.650 121.546,130.895 120.879,130.547 120.535 C 130.199 120.191,129.787 119.910,129.631 119.910 C 129.476 119.910,129.016 119.510,128.611 119.021 C 127.859 118.114,127.423 117.883,127.423 118.391 M120.880 119.621 C 120.504 119.772,120.123 120.089,120.032 120.326 C 119.941 120.563,119.501 120.908,119.053 121.093 C 118.606 121.278,118.057 121.724,117.832 122.084 C 117.257 123.005,118.378 122.283,121.077 119.994 C 121.937 119.265,121.907 119.209,120.880 119.621 M201.103 120.436 C 200.623 120.890,199.852 121.533,199.390 121.863 C 198.459 122.528,197.746 123.189,197.746 123.387 C 197.746 123.770,198.425 123.386,199.590 122.342 C 200.311 121.696,201.307 120.821,201.803 120.398 C 202.299 119.975,202.540 119.624,202.339 119.619 C 202.139 119.614,201.582 119.981,201.103 120.436 M345.113 121.572 C 346.773 123.119,347.107 123.376,347.107 123.102 C 347.107 122.764,344.108 119.911,343.761 119.919 C 343.536 119.924,344.144 120.667,345.113 121.572 M116.019 123.375 C 115.615 123.773,115.357 124.173,115.447 124.263 C 115.656 124.471,117.205 123.264,117.205 122.893 C 117.205 122.440,116.802 122.603,116.019 123.375 M133.434 123.451 C 133.434 123.581,133.838 123.926,134.331 124.217 C 135.106 124.675,135.204 124.683,135.047 124.274 C 134.784 123.588,133.434 122.900,133.434 123.451 M347.708 123.780 C 347.708 124.062,350.831 126.822,351.150 126.822 C 351.254 126.822,350.628 126.078,349.759 125.169 C 348.235 123.576,347.708 123.220,347.708 123.780 M196.243 124.381 C 195.097 125.688,194.863 126.052,195.342 125.783 C 196.043 125.390,197.145 124.340,197.145 124.065 C 197.145 123.675,196.737 123.819,196.243 124.381 M113.899 125.220 L 113.148 126.013 114.125 125.508 C 114.662 125.230,115.101 124.872,115.101 124.711 C 115.101 124.215,114.685 124.392,113.899 125.220 M135.537 125.012 C 135.537 125.173,136.247 125.858,137.115 126.533 C 137.983 127.208,139.194 128.165,139.806 128.660 C 140.418 129.155,141.027 129.571,141.158 129.584 C 141.290 129.597,141.573 129.859,141.789 130.166 C 142.004 130.473,142.453 130.871,142.788 131.050 C 143.647 131.510,143.070 130.457,142.117 129.827 C 141.742 129.579,141.141 129.072,140.781 128.700 C 140.421 128.328,139.972 128.024,139.783 128.024 C 139.594 128.024,139.146 127.686,138.787 127.273 C 138.427 126.860,138.018 126.521,137.877 126.521 C 137.736 126.521,137.224 126.116,136.739 125.620 C 135.810 124.669,135.537 124.531,135.537 125.012 M112.102 126.661 C 111.884 127.069,111.590 127.331,111.450 127.245 C 111.309 127.158,111.195 127.230,111.195 127.405 C 111.195 127.580,110.999 127.724,110.761 127.724 C 110.522 127.724,110.150 127.973,109.934 128.277 C 109.718 128.581,109.204 129.009,108.790 129.228 C 108.018 129.636,107.314 130.389,107.297 130.825 C 107.292 130.961,107.469 130.894,107.691 130.675 C 107.913 130.457,108.546 129.940,109.097 129.527 C 111.764 127.529,112.998 126.482,112.998 126.214 C 112.998 125.668,112.501 125.916,112.102 126.661 M193.287 126.999 C 192.735 127.563,192.420 128.024,192.587 128.024 C 192.995 128.024,194.741 126.540,194.741 126.194 C 194.741 125.713,194.316 125.948,193.287 126.999 M351.840 127.298 C 351.678 127.460,354.745 130.428,355.075 130.428 C 355.421 130.428,355.134 130.054,353.697 128.631 C 352.053 127.005,352.100 127.039,351.840 127.298 M190.387 129.398 C 189.893 129.965,189.387 130.428,189.263 130.428 C 189.037 130.428,187.228 132.215,187.228 132.437 C 187.228 132.679,188.321 131.924,189.351 130.970 C 189.940 130.424,190.785 129.709,191.229 129.380 C 192.092 128.741,192.272 128.311,191.660 128.346 C 191.454 128.358,190.881 128.831,190.387 129.398 M105.842 131.642 C 105.480 131.979,105.184 132.322,105.184 132.404 C 105.184 132.651,106.258 131.997,106.673 131.496 C 107.239 130.815,106.612 130.925,105.842 131.642 M356.944 132.292 C 357.638 132.986,358.299 133.461,358.413 133.348 C 358.660 133.100,356.533 131.029,356.031 131.029 C 355.839 131.029,356.249 131.597,356.944 132.292 M143.651 131.596 C 143.651 131.863,144.964 132.832,145.325 132.832 C 145.595 132.832,144.153 131.341,143.877 131.335 C 143.753 131.332,143.651 131.450,143.651 131.596 M103.681 133.335 L 102.930 134.127 103.907 133.622 C 104.444 133.345,104.884 132.986,104.884 132.825 C 104.884 132.330,104.467 132.506,103.681 133.335 M145.755 133.126 C 145.755 133.287,146.465 133.972,147.333 134.647 C 148.201 135.322,149.331 136.238,149.845 136.682 C 152.615 139.077,153.802 139.841,153.302 138.907 C 153.107 138.541,152.837 138.242,152.703 138.242 C 152.568 138.242,152.176 137.997,151.831 137.697 C 151.485 137.398,150.837 136.891,150.389 136.570 C 149.942 136.250,149.300 135.684,148.963 135.312 C 148.627 134.940,148.236 134.636,148.095 134.636 C 147.954 134.636,147.442 134.230,146.957 133.734 C 146.027 132.783,145.755 132.645,145.755 133.126 M185.347 133.747 C 184.892 134.244,184.182 134.804,183.770 134.992 C 183.357 135.180,183.020 135.421,183.020 135.529 C 183.020 135.636,182.745 136.020,182.408 136.382 C 181.469 137.390,182.134 137.161,183.337 136.062 C 183.924 135.525,184.904 134.708,185.516 134.245 C 186.127 133.782,186.627 133.275,186.627 133.118 C 186.627 132.611,186.195 132.823,185.347 133.747 M101.884 134.776 C 101.666 135.183,101.351 135.433,101.186 135.330 C 101.013 135.224,100.977 135.295,101.102 135.496 C 101.345 135.890,103.104 134.662,102.873 134.260 C 102.636 133.845,102.284 134.028,101.884 134.776 M99.747 136.453 C 99.349 136.791,98.553 137.459,97.978 137.937 C 97.403 138.415,97.006 138.880,97.097 138.970 C 97.188 139.061,97.744 138.698,98.334 138.163 C 98.923 137.628,99.793 136.893,100.266 136.531 C 100.740 136.168,100.979 135.864,100.799 135.854 C 100.618 135.845,100.145 136.115,99.747 136.453 M180.143 138.048 C 179.266 138.955,178.901 139.605,179.443 139.295 C 180.129 138.903,181.217 137.856,181.217 137.588 C 181.217 137.185,180.809 137.360,180.143 138.048 M95.624 139.756 C 94.704 140.613,94.805 140.775,95.868 140.148 C 96.364 139.855,96.769 139.509,96.769 139.379 C 96.769 138.969,96.304 139.122,95.624 139.756 M153.869 139.678 C 153.869 139.934,154.249 140.276,156.274 141.840 C 157.018 142.415,157.693 142.961,157.776 143.055 C 157.859 143.149,158.738 143.863,159.730 144.640 C 160.721 145.418,161.736 146.239,161.983 146.464 C 162.937 147.331,163.859 147.667,163.439 146.994 C 163.233 146.664,162.837 146.284,162.559 146.150 C 161.942 145.851,160.047 144.346,159.132 143.426 C 158.761 143.054,158.339 142.747,158.192 142.745 C 158.046 142.742,157.608 142.404,157.219 141.993 C 156.829 141.583,156.356 141.241,156.167 141.234 C 155.978 141.227,155.491 140.822,155.085 140.333 C 154.370 139.470,153.869 139.200,153.869 139.678 M177.378 140.501 C 176.836 141.077,176.518 141.548,176.671 141.548 C 177.025 141.548,178.813 139.987,178.813 139.678 C 178.813 139.207,178.339 139.479,177.378 140.501 M93.464 141.548 C 93.050 142.022,92.551 142.419,92.354 142.430 C 92.156 142.440,91.812 142.710,91.589 143.028 C 91.366 143.347,90.825 143.771,90.387 143.971 C 89.649 144.307,88.999 145.161,89.491 145.149 C 89.758 145.142,91.491 143.783,92.651 142.671 C 93.128 142.214,93.776 141.702,94.092 141.533 C 94.407 141.364,94.666 141.096,94.666 140.936 C 94.666 140.438,94.243 140.653,93.464 141.548 M174.459 142.921 C 173.965 143.488,173.448 143.952,173.309 143.952 C 172.944 143.952,171.197 145.753,171.382 145.938 C 171.468 146.023,172.196 145.510,173.000 144.797 C 173.805 144.084,174.833 143.211,175.285 142.857 C 176.177 142.158,176.323 141.836,175.733 141.870 C 175.526 141.881,174.953 142.355,174.459 142.921 M87.728 145.998 C 86.973 146.803,86.681 147.395,87.181 147.108 C 87.894 146.699,88.655 145.976,88.655 145.708 C 88.655 145.314,88.252 145.440,87.728 145.998 M169.468 147.251 C 168.777 147.908,167.993 148.515,167.726 148.600 C 167.218 148.761,166.320 149.966,166.714 149.958 C 166.840 149.955,167.363 149.583,167.876 149.131 C 168.390 148.679,169.226 147.992,169.733 147.605 C 170.543 146.986,171.215 146.056,170.852 146.056 C 170.782 146.056,170.159 146.593,169.468 147.251 M85.349 148.060 L 84.598 148.852 85.575 148.348 C 86.112 148.070,86.551 147.712,86.551 147.551 C 86.551 147.055,86.135 147.232,85.349 148.060 M164.914 148.819 C 165.276 149.181,165.678 149.373,165.806 149.245 C 165.935 149.117,165.777 148.820,165.457 148.585 C 164.551 147.923,164.178 148.084,164.914 148.819 M83.446 149.411 C 83.143 149.742,82.973 150.091,83.069 150.186 C 83.271 150.388,84.448 149.389,84.448 149.014 C 84.448 148.604,84.037 148.767,83.446 149.411 M81.271 151.176 C 80.952 151.513,80.221 152.181,79.646 152.660 C 79.071 153.139,78.666 153.597,78.747 153.678 C 78.828 153.759,79.383 153.396,79.980 152.870 C 80.577 152.345,81.455 151.619,81.930 151.256 C 82.515 150.810,82.642 150.591,82.323 150.580 C 82.063 150.571,81.590 150.839,81.271 151.176 M77.607 154.069 C 77.399 154.153,77.084 154.491,76.908 154.820 C 76.625 155.350,76.653 155.383,77.162 155.111 C 78.342 154.479,78.707 153.627,77.607 154.069 M75.351 155.973 C 75.068 156.304,74.912 156.574,75.004 156.574 C 75.393 156.574,76.334 155.929,76.334 155.662 C 76.334 155.192,75.904 155.328,75.351 155.973 M73.084 157.926 C 72.725 158.340,72.276 158.678,72.088 158.678 C 71.899 158.678,71.450 158.982,71.090 159.354 C 70.730 159.726,70.129 160.233,69.754 160.481 C 68.851 161.078,68.215 162.169,69.023 161.733 C 69.325 161.571,69.863 161.121,70.218 160.734 C 70.574 160.347,71.616 159.489,72.535 158.828 C 74.099 157.702,74.561 157.175,73.984 157.175 C 73.848 157.175,73.443 157.513,73.084 157.926 M67.017 162.795 L 66.266 163.596 67.243 163.026 C 67.780 162.712,68.219 162.349,68.219 162.219 C 68.219 161.777,67.770 161.993,67.017 162.795 M64.940 164.270 C 64.541 164.667,64.283 165.059,64.365 165.142 C 64.541 165.317,66.116 164.022,66.116 163.702 C 66.116 163.322,65.685 163.530,64.940 164.270 M62.866 166.041 C 62.507 166.454,62.025 166.792,61.795 166.792 C 61.565 166.792,61.157 167.127,60.888 167.537 C 60.620 167.947,60.012 168.483,59.538 168.728 C 59.063 168.973,58.594 169.385,58.495 169.643 C 58.266 170.241,58.948 169.878,60.303 168.682 C 61.794 167.365,62.412 166.870,63.241 166.326 C 63.665 166.049,64.012 165.701,64.012 165.555 C 64.012 165.073,63.530 165.277,62.866 166.041 M57.019 170.699 C 56.736 171.029,56.580 171.300,56.672 171.300 C 57.061 171.300,58.002 170.654,58.002 170.388 C 58.002 169.918,57.572 170.054,57.019 170.699 M54.710 172.515 C 54.304 173.003,53.847 173.403,53.692 173.403 C 53.538 173.403,53.116 173.708,52.754 174.080 C 52.392 174.452,51.725 175.018,51.273 175.338 C 50.820 175.658,50.168 176.166,49.822 176.465 C 49.477 176.765,49.084 177.010,48.950 177.010 C 48.816 177.010,48.553 177.297,48.365 177.647 C 48.089 178.163,48.101 178.238,48.430 178.042 C 49.018 177.690,51.109 176.057,51.867 175.357 C 52.225 175.026,53.278 174.173,54.208 173.461 C 55.137 172.749,55.898 172.039,55.898 171.883 C 55.898 171.376,55.462 171.608,54.710 172.515 M46.608 178.996 C 46.209 179.393,45.972 179.806,46.082 179.916 C 46.191 180.026,46.281 179.979,46.281 179.813 C 46.281 179.647,46.619 179.356,47.032 179.168 C 47.446 178.980,47.784 178.688,47.784 178.519 C 47.784 178.049,47.406 178.203,46.608 178.996 M44.434 180.761 C 44.045 181.172,43.573 181.510,43.385 181.512 C 43.198 181.515,42.816 181.866,42.538 182.291 C 41.948 183.190,42.778 182.931,43.579 181.965 C 43.801 181.697,44.365 181.281,44.832 181.039 C 45.298 180.798,45.680 180.469,45.680 180.308 C 45.680 179.801,45.168 179.987,44.434 180.761 M16.829 254.563 C 16.829 255.901,16.940 256.616,17.130 256.499 C 17.295 256.397,17.431 255.442,17.431 254.377 C 17.431 253.287,17.299 252.442,17.130 252.442 C 16.958 252.442,16.829 253.349,16.829 254.563 M382.569 255.597 C 382.569 256.341,382.705 256.950,382.870 256.950 C 383.035 256.950,383.171 256.341,383.171 255.597 C 383.171 254.853,383.035 254.245,382.870 254.245 C 382.705 254.245,382.569 254.853,382.569 255.597 M17.130 259.186 C 17.130 259.424,17.265 259.703,17.431 259.805 C 17.596 259.907,17.731 259.712,17.731 259.372 C 17.731 259.031,17.596 258.753,17.431 258.753 C 17.265 258.753,17.130 258.948,17.130 259.186 M382.269 259.522 C 382.269 259.958,382.399 260.211,382.569 260.105 C 382.735 260.003,382.870 259.657,382.870 259.336 C 382.870 259.015,382.735 258.753,382.569 258.753 C 382.404 258.753,382.269 259.099,382.269 259.522 M0.070 261.458 C 0.070 262.036,0.132 262.273,0.207 261.983 C 0.283 261.694,0.283 261.221,0.207 260.932 C 0.132 260.642,0.070 260.879,0.070 261.458 M18.032 263.711 C 18.032 263.959,18.167 264.162,18.332 264.162 C 18.497 264.162,18.633 263.959,18.633 263.711 C 18.633 263.464,18.497 263.261,18.332 263.261 C 18.167 263.261,18.032 263.464,18.032 263.711 M381.367 263.711 C 381.367 263.959,381.503 264.162,381.668 264.162 C 381.833 264.162,381.968 263.959,381.968 263.711 C 381.968 263.464,381.833 263.261,381.668 263.261 C 381.503 263.261,381.367 263.464,381.367 263.711 M399.312 263.861 C 399.226 264.192,399.277 264.538,399.427 264.631 C 399.577 264.723,399.699 264.453,399.699 264.030 C 399.699 263.109,399.528 263.035,399.312 263.861 M18.332 264.914 C 18.332 265.162,18.467 265.364,18.633 265.364 C 18.798 265.364,18.933 265.162,18.933 264.914 C 18.933 264.666,18.798 264.463,18.633 264.463 C 18.467 264.463,18.332 264.666,18.332 264.914 M0.601 265.965 C 0.601 266.526,0.681 266.607,0.962 266.326 C 1.242 266.046,1.242 265.885,0.962 265.605 C 0.681 265.324,0.601 265.404,0.601 265.965 M398.932 265.691 C 398.821 265.871,398.881 266.168,399.065 266.352 C 399.310 266.598,399.399 266.511,399.399 266.026 C 399.399 265.300,399.243 265.188,398.932 265.691 M0.902 267.618 C 0.902 267.866,1.037 268.069,1.202 268.069 C 1.367 268.069,1.503 267.866,1.503 267.618 C 1.503 267.370,1.367 267.168,1.202 267.168 C 1.037 267.168,0.902 267.370,0.902 267.618 M380.015 268.069 C 379.906 268.565,379.714 268.971,379.588 268.971 C 379.463 268.971,379.181 269.512,378.963 270.173 C 378.745 270.834,378.453 271.375,378.314 271.375 C 378.175 271.375,378.062 271.510,378.062 271.675 C 378.062 272.481,378.692 271.774,379.677 269.865 C 380.806 267.676,380.959 267.168,380.490 267.168 C 380.338 267.168,380.124 267.573,380.015 268.069 M398.497 267.618 C 398.497 267.866,398.633 268.069,398.798 268.069 C 398.963 268.069,399.098 267.866,399.098 267.618 C 399.098 267.370,398.963 267.168,398.798 267.168 C 398.633 267.168,398.497 267.370,398.497 267.618 M19.778 268.224 C 19.567 268.437,21.327 271.985,22.010 272.721 C 22.218 272.946,22.660 273.487,22.990 273.924 C 24.023 275.289,25.830 277.085,26.172 277.085 C 26.351 277.085,25.743 276.323,24.819 275.393 C 23.896 274.462,23.140 273.515,23.140 273.289 C 23.140 273.063,23.002 272.878,22.833 272.878 C 22.663 272.878,22.396 272.539,22.239 272.126 C 22.082 271.713,21.836 271.375,21.693 271.375 C 21.550 271.375,21.255 270.834,21.037 270.173 C 20.819 269.512,20.536 268.971,20.410 268.971 C 20.283 268.971,20.136 268.756,20.082 268.493 C 20.029 268.230,19.892 268.109,19.778 268.224 M1.803 270.323 C 1.803 270.571,1.938 270.774,2.104 270.774 C 2.269 270.774,2.404 270.571,2.404 270.323 C 2.404 270.075,2.269 269.872,2.104 269.872 C 1.938 269.872,1.803 270.075,1.803 270.323 M397.596 270.323 C 397.596 270.571,397.731 270.774,397.896 270.774 C 398.062 270.774,398.197 270.571,398.197 270.323 C 398.197 270.075,398.062 269.872,397.896 269.872 C 397.731 269.872,397.596 270.075,397.596 270.323 M377.385 272.695 C 377.096 272.914,376.860 273.237,376.860 273.413 C 376.860 273.891,373.270 277.385,372.778 277.385 C 372.544 277.385,372.352 277.524,372.352 277.693 C 372.352 277.863,372.014 278.130,371.600 278.287 C 371.187 278.444,370.849 278.711,370.849 278.881 C 370.849 279.338,371.279 279.255,371.981 278.663 C 372.323 278.373,372.986 277.868,373.454 277.540 C 374.563 276.762,376.826 274.469,377.695 273.243 C 378.410 272.235,378.284 272.013,377.385 272.695 M4.039 275.769 C 4.148 276.202,4.424 276.744,4.653 276.973 C 4.882 277.202,5.155 277.659,5.260 277.988 C 5.364 278.318,5.587 278.588,5.755 278.588 C 6.113 278.588,6.094 278.528,5.109 276.529 C 4.304 274.896,3.715 274.477,4.039 275.769 M395.073 276.262 C 394.760 276.962,394.523 277.637,394.547 277.761 C 394.571 277.885,394.455 277.986,394.290 277.986 C 394.125 277.986,393.989 278.122,393.989 278.287 C 393.989 278.825,394.545 278.604,394.740 277.988 C 394.845 277.659,395.118 277.202,395.347 276.973 C 395.848 276.471,396.263 274.980,395.900 274.984 C 395.758 274.986,395.386 275.561,395.073 276.262 M27.047 277.629 C 27.047 277.874,28.684 279.189,28.989 279.189 C 29.472 279.189,29.043 278.532,28.400 278.287 C 27.986 278.130,27.648 277.863,27.648 277.693 C 27.648 277.524,27.513 277.385,27.348 277.385 C 27.183 277.385,27.047 277.495,27.047 277.629 M6.079 279.245 C 6.145 279.441,6.359 279.655,6.555 279.721 C 6.775 279.794,6.842 279.657,6.730 279.364 C 6.520 278.818,5.899 278.704,6.079 279.245 M393.270 279.364 C 393.158 279.657,393.225 279.794,393.445 279.721 C 393.894 279.571,394.141 278.888,393.746 278.888 C 393.585 278.888,393.371 279.102,393.270 279.364 M29.917 279.613 C 30.236 279.846,30.600 279.973,30.725 279.896 C 30.851 279.818,30.954 279.897,30.954 280.072 C 30.954 280.247,31.089 280.391,31.255 280.391 C 31.915 280.391,31.499 279.829,30.609 279.519 C 29.360 279.083,29.219 279.102,29.917 279.613 M369.656 279.477 C 369.412 279.631,369.305 279.848,369.416 279.959 C 369.527 280.071,369.837 279.943,370.105 279.675 C 370.634 279.146,370.366 279.028,369.656 279.477 M366.341 280.992 C 366.341 281.157,366.544 281.292,366.792 281.292 C 367.040 281.292,367.243 281.157,367.243 280.992 C 367.243 280.826,367.040 280.691,366.792 280.691 C 366.544 280.691,366.341 280.826,366.341 280.992 M7.513 281.593 C 7.513 281.758,7.632 281.893,7.777 281.893 C 7.922 281.893,8.197 282.269,8.387 282.728 C 8.577 283.187,9.005 283.733,9.338 283.941 C 9.929 284.310,9.933 284.297,9.472 283.407 C 9.213 282.905,8.878 282.494,8.728 282.494 C 8.578 282.494,8.369 282.224,8.264 281.893 C 8.069 281.277,7.513 281.054,7.513 281.593 M391.736 281.893 C 391.631 282.224,391.448 282.494,391.329 282.494 C 391.211 282.494,390.869 282.909,390.569 283.417 C 389.787 284.740,390.908 284.042,391.742 282.686 C 392.547 281.377,392.577 281.292,392.232 281.292 C 392.064 281.292,391.840 281.563,391.736 281.893 M35.702 281.953 C 35.983 282.234,36.143 282.234,36.424 281.953 C 36.704 281.673,36.624 281.593,36.063 281.593 C 35.502 281.593,35.422 281.673,35.702 281.953 M36.965 282.194 C 36.965 282.359,37.235 282.494,37.566 282.494 C 37.896 282.494,38.167 282.359,38.167 282.194 C 38.167 282.029,37.896 281.893,37.566 281.893 C 37.235 281.893,36.965 282.029,36.965 282.194 M361.833 282.194 C 361.833 282.359,362.104 282.494,362.434 282.494 C 362.765 282.494,363.035 282.359,363.035 282.194 C 363.035 282.029,362.765 281.893,362.434 281.893 C 362.104 281.893,361.833 282.029,361.833 282.194 M41.623 283.095 C 41.725 283.261,42.071 283.396,42.392 283.396 C 42.713 283.396,42.975 283.261,42.975 283.095 C 42.975 282.930,42.629 282.795,42.206 282.795 C 41.770 282.795,41.517 282.925,41.623 283.095 M357.025 283.095 C 357.025 283.261,357.287 283.396,357.608 283.396 C 357.929 283.396,358.275 283.261,358.377 283.095 C 358.483 282.925,358.230 282.795,357.794 282.795 C 357.371 282.795,357.025 282.930,357.025 283.095 M46.732 283.396 C 46.608 283.596,97.768 283.696,199.982 283.696 C 302.073 283.696,353.418 283.596,353.418 283.396 C 353.418 283.196,302.135 283.095,200.168 283.095 C 98.325 283.095,46.855 283.196,46.732 283.396 M9.917 284.744 C 9.917 285.064,15.059 290.008,15.391 290.008 C 15.587 290.008,14.537 288.791,13.058 287.303 C 10.647 284.879,9.917 284.285,9.917 284.744 M386.960 287.308 C 385.491 288.793,384.454 290.008,384.656 290.008 C 384.998 290.008,390.083 285.081,390.083 284.750 C 390.083 284.290,389.368 284.875,386.960 287.308 M16.238 290.487 C 16.253 290.924,17.016 291.811,17.377 291.811 C 17.559 291.811,17.982 292.105,18.317 292.465 C 18.652 292.825,19.029 293.017,19.155 292.891 C 19.280 292.766,19.113 292.476,18.782 292.247 C 17.933 291.659,17.645 291.437,16.892 290.787 C 16.527 290.473,16.233 290.337,16.238 290.487 M382.419 291.386 C 381.923 291.813,381.316 292.276,381.069 292.415 C 380.823 292.554,380.722 292.768,380.845 292.891 C 380.968 293.014,381.382 292.822,381.764 292.463 C 382.146 292.104,382.586 291.811,382.742 291.811 C 382.898 291.811,383.195 291.540,383.401 291.210 C 383.918 290.382,383.497 290.458,382.419 291.386 M19.731 293.476 C 19.829 293.731,20.058 293.890,20.241 293.829 C 20.556 293.724,20.813 293.876,21.776 294.740 C 22.247 295.162,23.769 295.790,23.930 295.629 C 23.988 295.571,23.462 295.206,22.761 294.817 C 22.061 294.428,21.420 294.018,21.337 293.907 C 21.168 293.678,19.960 293.013,19.714 293.013 C 19.625 293.013,19.633 293.221,19.731 293.476 M379.765 293.213 C 379.477 293.500,379.518 293.914,379.833 293.914 C 379.980 293.914,380.179 293.711,380.274 293.464 C 380.450 293.005,380.130 292.848,379.765 293.213 M377.543 294.620 C 376.679 295.121,376.018 295.577,376.074 295.633 C 376.248 295.807,377.785 295.135,378.229 294.691 C 378.462 294.459,378.823 294.207,379.033 294.133 C 379.243 294.058,379.346 293.932,379.264 293.853 C 379.181 293.774,378.407 294.119,377.543 294.620 M25.244 296.331 C 25.244 296.483,25.582 296.692,25.995 296.796 C 26.409 296.900,26.747 297.105,26.747 297.253 C 26.747 297.400,26.950 297.521,27.198 297.521 C 27.446 297.521,27.648 297.385,27.648 297.220 C 27.648 297.055,27.479 296.919,27.273 296.918 C 27.066 296.917,26.525 296.722,26.071 296.485 C 25.616 296.248,25.244 296.178,25.244 296.331 M374.319 296.295 C 374.225 296.448,373.744 296.662,373.250 296.770 C 372.326 296.973,371.999 297.521,372.802 297.521 C 373.050 297.521,373.253 297.400,373.253 297.253 C 373.253 297.105,373.591 296.900,374.005 296.796 C 374.418 296.692,374.756 296.475,374.756 296.313 C 374.756 295.942,374.543 295.933,374.319 296.295 M28.850 298.122 C 28.850 298.287,29.053 298.422,29.301 298.422 C 29.549 298.422,29.752 298.287,29.752 298.122 C 29.752 297.956,29.549 297.821,29.301 297.821 C 29.053 297.821,28.850 297.956,28.850 298.122 M370.248 298.122 C 370.248 298.287,370.451 298.422,370.699 298.422 C 370.947 298.422,371.150 298.287,371.150 298.122 C 371.150 297.956,370.947 297.821,370.699 297.821 C 370.451 297.821,370.248 297.956,370.248 298.122 M30.053 298.422 C 30.053 298.588,30.255 298.723,30.503 298.723 C 30.751 298.723,30.954 298.588,30.954 298.422 C 30.954 298.257,30.751 298.122,30.503 298.122 C 30.255 298.122,30.053 298.257,30.053 298.422 M369.046 298.422 C 369.046 298.588,369.249 298.723,369.497 298.723 C 369.745 298.723,369.947 298.588,369.947 298.422 C 369.947 298.257,369.745 298.122,369.497 298.122 C 369.249 298.122,369.046 298.257,369.046 298.422 M31.255 298.723 C 31.255 298.888,31.559 299.021,31.931 299.019 C 32.478 299.015,32.521 298.958,32.156 298.723 C 31.574 298.346,31.255 298.346,31.255 298.723 M32.757 299.324 C 32.757 299.489,33.028 299.624,33.358 299.624 C 33.689 299.624,33.959 299.489,33.959 299.324 C 33.959 299.159,33.689 299.023,33.358 299.023 C 33.028 299.023,32.757 299.159,32.757 299.324 M366.341 299.324 C 366.341 299.489,366.544 299.624,366.792 299.624 C 367.040 299.624,367.243 299.489,367.243 299.324 C 367.243 299.159,367.040 299.023,366.792 299.023 C 366.544 299.023,366.341 299.159,366.341 299.324 M34.560 299.624 C 34.560 299.790,34.763 299.925,35.011 299.925 C 35.259 299.925,35.462 299.790,35.462 299.624 C 35.462 299.459,35.259 299.324,35.011 299.324 C 34.763 299.324,34.560 299.459,34.560 299.624 M364.538 299.624 C 364.538 299.790,364.741 299.925,364.989 299.925 C 365.237 299.925,365.440 299.790,365.440 299.624 C 365.440 299.459,365.237 299.324,364.989 299.324 C 364.741 299.324,364.538 299.459,364.538 299.624 M40.049 300.441 C 40.506 300.510,41.182 300.508,41.552 300.437 C 41.921 300.366,41.548 300.309,40.721 300.311 C 39.895 300.314,39.592 300.372,40.049 300.441 M358.753 300.437 C 359.125 300.509,359.733 300.509,360.105 300.437 C 360.477 300.366,360.173 300.307,359.429 300.307 C 358.685 300.307,358.381 300.366,358.753 300.437 " stroke="none" fill="#b2b2b2" fill-rule="evenodd"></path><path id="path1" d="M39.369 0.706 C 39.369 0.847,38.760 0.914,38.017 0.855 C 37.273 0.795,36.664 0.825,36.664 0.920 C 36.664 1.015,35.616 1.333,34.335 1.627 C 33.054 1.921,31.059 2.503,29.902 2.920 C 28.745 3.337,27.630 3.685,27.423 3.693 C 27.216 3.700,27.047 3.805,27.047 3.924 C 27.047 4.044,26.743 4.220,26.371 4.315 C 19.033 6.185,7.431 18.150,3.598 27.799 C 3.205 28.790,2.792 29.737,2.683 29.902 C 2.573 30.068,2.315 30.947,2.109 31.856 C 1.904 32.765,1.582 33.644,1.394 33.809 C 1.206 33.974,1.015 34.853,0.970 35.763 C 0.924 36.672,0.808 37.618,0.710 37.866 C 0.253 39.033,0.207 48.719,0.180 150.263 C 0.148 265.816,0.129 264.146,1.498 266.837 C 1.632 267.101,2.111 268.467,2.562 269.872 C 5.194 278.072,10.683 285.728,17.881 291.239 C 19.557 292.522,25.339 296.016,25.794 296.020 C 25.905 296.021,26.401 296.235,26.897 296.495 C 28.060 297.105,32.416 298.550,34.636 299.062 C 35.586 299.281,36.364 299.538,36.364 299.632 C 36.364 299.727,36.839 299.749,37.420 299.681 C 38.000 299.613,38.655 299.706,38.874 299.888 C 39.442 300.360,360.558 300.360,361.126 299.888 C 361.345 299.706,362.000 299.613,362.580 299.681 C 363.161 299.749,363.636 299.696,363.636 299.564 C 363.636 299.432,363.968 299.324,364.374 299.324 C 364.779 299.324,365.421 299.200,365.801 299.048 C 366.181 298.896,367.708 298.402,369.196 297.950 C 382.379 293.948,395.669 280.190,398.059 268.069 C 398.173 267.491,398.373 266.882,398.503 266.717 C 398.633 266.551,398.838 265.605,398.957 264.613 C 399.076 263.621,399.245 262.687,399.333 262.537 C 399.785 261.766,399.835 250.446,399.835 150.263 C 399.835 49.744,399.784 39.115,399.291 37.866 C 399.193 37.618,399.076 36.672,399.030 35.763 C 398.985 34.853,398.794 33.974,398.606 33.809 C 398.161 33.418,397.483 30.478,397.742 30.059 C 397.851 29.882,397.794 29.774,397.615 29.820 C 397.436 29.865,396.839 28.820,396.287 27.498 C 391.933 17.052,383.157 8.258,372.802 3.964 C 369.021 2.396,369.600 2.588,366.191 1.771 C 364.703 1.415,363.449 1.030,363.404 0.915 C 363.358 0.801,362.920 0.766,362.431 0.838 C 361.941 0.910,361.323 0.885,361.058 0.784 C 360.307 0.496,39.369 0.418,39.369 0.706 M356.045 17.046 C 356.128 17.295,356.571 17.358,357.423 17.243 C 358.113 17.149,359.421 17.229,360.331 17.420 C 361.240 17.611,362.355 17.842,362.810 17.934 C 363.264 18.025,363.637 18.186,363.637 18.291 C 363.638 18.396,364.109 18.492,364.685 18.505 C 365.261 18.517,366.039 18.674,366.413 18.853 C 366.786 19.032,368.002 19.588,369.115 20.089 C 374.094 22.331,377.692 25.922,380.179 31.134 C 381.656 34.228,383.001 39.335,382.802 41.092 C 382.741 41.627,382.801 42.101,382.935 42.146 C 383.255 42.252,383.255 258.274,382.935 258.380 C 382.801 258.425,382.741 258.899,382.802 259.434 C 383.001 261.191,381.656 266.298,380.179 269.392 C 377.132 275.776,369.853 281.724,364.765 281.986 C 364.146 282.018,363.639 282.140,363.638 282.257 C 363.635 282.699,360.991 283.191,358.481 283.218 C 357.051 283.233,355.931 283.329,355.994 283.430 C 356.309 283.940,342.024 283.992,200.269 283.994 C 53.716 283.997,43.682 283.955,44.062 283.340 C 44.159 283.183,43.617 283.144,42.776 283.248 C 34.518 284.273,22.693 276.953,19.669 268.945 C 19.393 268.215,18.994 267.213,18.782 266.717 C 18.336 265.677,17.886 263.831,17.985 263.454 C 18.022 263.313,17.904 263.019,17.723 262.800 C 17.542 262.582,17.368 261.481,17.337 260.353 C 17.306 259.225,17.176 258.225,17.049 258.131 C 16.748 257.907,16.748 42.619,17.049 42.395 C 17.176 42.301,17.306 41.301,17.337 40.173 C 17.368 39.045,17.542 37.944,17.723 37.725 C 17.904 37.507,18.022 37.213,17.985 37.071 C 17.886 36.697,18.335 34.852,18.779 33.809 C 18.990 33.313,19.340 32.434,19.557 31.856 C 22.528 23.925,32.295 17.468,41.547 17.318 C 42.828 17.297,43.876 17.185,43.876 17.068 C 43.877 16.467,355.845 16.445,356.045 17.046 M70.849 42.140 C 70.808 42.260,69.760 42.551,68.520 42.788 C 61.156 44.194,52.464 49.570,48.779 54.996 C 48.499 55.409,48.178 55.815,48.066 55.898 C 46.877 56.779,43.767 63.635,42.957 67.162 C 42.654 68.482,42.297 69.597,42.165 69.641 C 42.032 69.685,41.970 70.479,42.028 71.405 C 42.088 72.371,41.992 73.230,41.803 73.419 C 41.374 73.848,41.374 76.716,41.803 77.145 C 41.992 77.334,42.088 78.193,42.028 79.159 C 41.970 80.085,42.035 80.879,42.171 80.925 C 42.308 80.970,42.615 81.950,42.854 83.103 C 43.093 84.256,43.474 85.605,43.700 86.101 C 43.926 86.597,44.213 87.340,44.337 87.754 C 46.519 94.977,56.447 104.352,64.403 106.701 C 65.180 106.931,65.815 107.220,65.815 107.344 C 65.815 107.468,66.012 107.494,66.252 107.402 C 66.492 107.310,66.863 107.345,67.078 107.481 C 67.293 107.617,67.869 107.749,68.359 107.776 C 68.849 107.803,69.288 107.941,69.335 108.082 C 69.382 108.224,70.165 108.293,71.074 108.237 C 72.132 108.171,72.727 108.252,72.727 108.462 C 72.727 108.901,77.007 108.899,77.446 108.459 C 77.632 108.273,78.440 108.174,79.281 108.233 C 80.108 108.292,80.735 108.259,80.674 108.161 C 80.613 108.063,81.674 107.735,83.031 107.434 C 84.389 107.133,85.635 106.791,85.800 106.675 C 85.965 106.559,86.609 106.301,87.231 106.100 C 92.131 104.522,99.164 98.914,102.335 94.055 C 104.783 90.306,107.280 84.588,107.286 82.720 C 107.287 82.348,107.400 82.044,107.536 82.044 C 107.673 82.044,107.728 81.660,107.659 81.190 C 107.583 80.670,107.720 80.152,108.009 79.862 C 108.271 79.601,108.384 79.342,108.262 79.288 C 108.139 79.233,108.107 77.329,108.189 75.056 C 108.272 72.783,108.222 70.884,108.079 70.836 C 107.935 70.789,107.692 69.944,107.539 68.959 C 105.937 58.654,97.377 48.302,87.303 44.489 C 86.311 44.113,85.283 43.698,85.018 43.566 C 84.753 43.434,83.908 43.232,83.140 43.116 C 82.371 43.001,81.743 42.821,81.742 42.716 C 81.742 42.610,81.191 42.518,80.520 42.509 C 79.848 42.501,79.206 42.365,79.093 42.209 C 78.856 41.879,70.961 41.814,70.849 42.140 M272.109 61.235 C 270.612 62.514,267.856 64.846,265.984 66.416 C 264.113 67.986,262.430 69.409,262.245 69.578 C 262.060 69.747,260.151 71.370,258.002 73.185 C 255.854 74.999,253.758 76.773,253.344 77.127 C 251.368 78.817,247.484 82.100,245.218 83.997 C 243.835 85.154,242.157 86.585,241.487 87.176 C 240.818 87.768,238.512 89.719,236.364 91.512 C 234.215 93.304,232.389 94.851,232.307 94.948 C 232.224 95.045,231.412 95.730,230.503 96.469 C 229.594 97.208,228.783 97.887,228.700 97.978 C 228.486 98.213,219.244 106.042,217.785 107.224 C 217.115 107.767,215.881 108.803,215.045 109.525 C 212.834 111.435,208.939 114.744,207.069 116.304 C 206.176 117.047,204.412 118.535,203.147 119.609 C 201.882 120.684,198.775 123.321,196.243 125.470 C 193.711 127.618,190.605 130.255,189.340 131.330 C 188.075 132.404,186.312 133.892,185.421 134.636 C 183.036 136.628,178.074 140.833,171.751 146.220 C 166.089 151.044,166.980 150.771,164.215 148.530 C 160.549 145.558,157.854 143.400,150.113 137.234 C 145.980 133.942,142.059 130.801,141.397 130.254 C 140.736 129.706,139.704 128.879,139.103 128.416 C 137.844 127.445,126.327 118.224,125.556 117.569 C 125.086 117.170,118.409 122.023,114.350 125.713 C 114.020 126.014,113.005 126.825,112.096 127.517 C 111.187 128.208,110.376 128.853,110.293 128.950 C 110.210 129.047,106.128 132.321,101.221 136.226 C 96.314 140.130,92.054 143.531,91.754 143.784 C 91.455 144.037,85.597 148.727,78.738 154.206 C 64.080 165.915,64.043 165.944,63.595 166.368 C 63.405 166.549,62.560 167.225,61.718 167.871 C 60.877 168.517,55.977 172.416,50.830 176.534 L 41.473 184.022 41.473 221.237 L 41.473 258.452 200.000 258.452 L 358.527 258.452 358.527 196.222 C 358.527 146.828,358.450 133.918,358.152 133.635 C 357.945 133.439,355.883 131.593,353.569 129.532 C 351.255 127.472,348.753 125.227,348.009 124.543 C 347.265 123.859,343.817 120.751,340.346 117.636 C 336.875 114.522,333.561 111.546,332.983 111.023 C 332.404 110.501,330.376 108.677,328.475 106.970 C 326.574 105.263,324.951 103.791,324.869 103.699 C 324.786 103.607,322.825 101.843,320.511 99.780 C 318.197 97.717,316.236 95.957,316.153 95.868 C 316.071 95.780,314.651 94.502,312.998 93.028 C 311.345 91.554,309.925 90.269,309.842 90.172 C 309.760 90.075,307.799 88.318,305.485 86.267 C 303.171 84.217,301.142 82.394,300.977 82.216 C 300.811 82.039,298.783 80.205,296.469 78.142 C 294.155 76.079,292.194 74.310,292.111 74.211 C 292.029 74.112,290.609 72.838,288.956 71.380 C 287.303 69.922,285.883 68.646,285.800 68.545 C 285.718 68.443,284.298 67.150,282.645 65.671 C 280.992 64.191,279.234 62.614,278.738 62.165 C 274.422 58.259,275.426 58.400,272.109 61.235 " stroke="none" fill="#040404" fill-rule="evenodd"></path><path id="path2" d="M354.020 17.130 C 354.020 17.295,354.222 17.431,354.470 17.431 C 354.718 17.431,354.921 17.295,354.921 17.130 C 354.921 16.965,354.718 16.829,354.470 16.829 C 354.222 16.829,354.020 16.965,354.020 17.130 M41.877 258.823 C 42.068 258.945,113.223 259.044,200.000 259.044 C 286.777 259.044,357.932 258.945,358.123 258.823 C 358.314 258.702,287.159 258.603,200.000 258.603 C 112.841 258.603,41.686 258.702,41.877 258.823 " stroke="none" fill="#747474" fill-rule="evenodd"></path><path id="path3" d="M38.467 0.601 C 38.103 0.837,38.146 0.893,38.693 0.897 C 39.065 0.900,39.369 0.766,39.369 0.601 C 39.369 0.225,39.050 0.225,38.467 0.601 M119.960 0.526 C 163.872 0.568,235.818 0.568,279.840 0.526 C 323.862 0.484,287.934 0.450,200.000 0.450 C 112.066 0.450,76.048 0.484,119.960 0.526 M34.003 1.409 C 33.675 1.760,33.748 1.794,34.463 1.622 C 35.551 1.361,35.602 1.309,34.939 1.135 C 34.638 1.057,34.217 1.180,34.003 1.409 M364.987 1.203 C 364.494 1.376,364.542 1.433,365.298 1.579 C 366.346 1.780,366.396 1.759,365.925 1.326 C 365.729 1.146,365.307 1.091,364.987 1.203 M21.337 6.516 C 21.337 6.683,21.033 6.967,20.661 7.146 C 20.289 7.326,20.128 7.482,20.303 7.493 C 20.809 7.525,21.810 6.684,21.562 6.436 C 21.439 6.312,21.337 6.348,21.337 6.516 M13.054 13.298 L 12.171 14.275 13.148 13.392 C 13.685 12.907,14.125 12.467,14.125 12.416 C 14.125 12.183,13.877 12.388,13.054 13.298 M387.065 13.599 C 387.802 14.384,388.444 15.026,388.492 15.026 C 388.718 15.026,388.479 14.756,387.153 13.511 L 385.725 12.171 387.065 13.599 M124.067 16.754 C 165.940 16.796,234.369 16.796,276.133 16.754 C 317.896 16.712,283.636 16.678,200.000 16.678 C 116.364 16.678,82.194 16.712,124.067 16.754 M43.877 17.130 C 43.877 17.295,44.215 17.431,44.628 17.431 C 45.041 17.431,45.379 17.295,45.379 17.130 C 45.379 16.965,45.041 16.829,44.628 16.829 C 44.215 16.829,43.877 16.965,43.877 17.130 M354.921 17.130 C 354.921 17.295,355.192 17.431,355.522 17.431 C 355.853 17.431,356.123 17.295,356.123 17.130 C 356.123 16.965,355.853 16.829,355.522 16.829 C 355.192 16.829,354.921 16.965,354.921 17.130 M358.978 17.431 C 359.080 17.596,359.367 17.731,359.615 17.731 C 359.863 17.731,359.982 17.596,359.880 17.431 C 359.778 17.265,359.491 17.130,359.243 17.130 C 358.995 17.130,358.876 17.265,358.978 17.431 M37.866 17.731 C 37.262 17.924,37.233 17.973,37.716 17.980 C 38.047 17.985,38.588 17.873,38.918 17.731 C 39.684 17.402,38.894 17.402,37.866 17.731 M26.735 22.527 C 26.163 23.016,25.778 23.422,25.880 23.429 C 25.981 23.436,26.522 23.037,27.082 22.544 C 27.641 22.051,28.026 21.645,27.938 21.643 C 27.849 21.640,27.308 22.038,26.735 22.527 M375.056 24.136 C 375.056 24.188,375.496 24.627,376.033 25.113 L 377.010 25.995 376.127 25.019 C 375.304 24.108,375.056 23.904,375.056 24.136 M396.909 29.156 C 397.141 30.045,397.533 30.161,397.367 29.292 C 397.289 28.884,397.118 28.550,396.988 28.550 C 396.857 28.550,396.822 28.823,396.909 29.156 M398.076 32.657 C 398.344 33.778,398.463 33.964,398.891 33.936 C 399.149 33.919,399.144 33.870,398.873 33.760 C 398.666 33.677,398.497 33.290,398.497 32.900 C 398.497 32.511,398.357 32.105,398.185 31.999 C 397.980 31.872,397.942 32.099,398.076 32.657 M381.968 37.047 C 381.968 37.478,382.109 37.918,382.281 38.024 C 382.486 38.151,382.523 37.924,382.389 37.366 C 382.112 36.214,381.968 36.105,381.968 37.047 M0.346 39.406 C 0.321 39.840,0.233 40.652,0.151 41.210 L 0.002 42.224 0.318 41.215 C 0.492 40.660,0.580 39.849,0.513 39.412 L 0.391 38.618 0.346 39.406 M16.829 42.825 C 16.829 43.073,16.965 43.276,17.130 43.276 C 17.295 43.276,17.431 43.073,17.431 42.825 C 17.431 42.577,17.295 42.374,17.130 42.374 C 16.965 42.374,16.829 42.577,16.829 42.825 M67.780 42.657 C 67.675 42.825,68.063 42.869,68.739 42.765 C 70.248 42.532,70.369 42.374,69.039 42.374 C 68.442 42.374,67.876 42.501,67.780 42.657 M64.914 43.258 C 64.914 43.433,64.651 43.576,64.330 43.576 C 64.009 43.576,63.654 43.726,63.541 43.909 C 63.400 44.137,63.560 44.173,64.050 44.023 C 65.261 43.652,65.631 43.383,65.253 43.149 C 65.066 43.034,64.914 43.083,64.914 43.258 M383.261 44.778 C 383.261 45.687,383.317 46.059,383.386 45.605 C 383.455 45.150,383.455 44.406,383.386 43.952 C 383.317 43.497,383.261 43.869,383.261 44.778 M16.625 45.980 C 16.625 47.055,16.680 47.494,16.746 46.957 C 16.813 46.420,16.813 45.541,16.746 45.004 C 16.680 44.467,16.625 44.906,16.625 45.980 M53.105 50.263 L 51.486 51.841 53.016 50.514 C 53.857 49.784,54.674 49.074,54.831 48.936 C 54.988 48.798,55.028 48.685,54.920 48.685 C 54.812 48.685,53.995 49.395,53.105 50.263 M50.019 53.268 L 49.136 54.245 50.113 53.362 C 51.023 52.539,51.228 52.292,50.995 52.292 C 50.944 52.292,50.504 52.731,50.019 53.268 M277.111 60.781 C 277.181 60.823,277.709 61.262,278.284 61.758 C 279.171 62.523,279.239 62.546,278.733 61.908 C 278.043 61.039,277.647 60.717,277.260 60.711 C 277.109 60.708,277.042 60.740,277.111 60.781 M42.575 67.218 C 42.464 67.328,42.388 67.835,42.405 68.345 L 42.436 69.271 42.682 68.221 C 42.940 67.128,42.913 66.879,42.575 67.218 M107.628 69.572 C 107.590 70.328,108.080 71.134,108.390 70.824 C 108.518 70.696,108.473 70.497,108.291 70.382 C 108.108 70.267,107.891 69.902,107.808 69.572 L 107.658 68.971 107.628 69.572 M287.904 70.473 C 288.465 71.052,288.991 71.525,289.074 71.525 C 289.156 71.525,288.765 71.052,288.204 70.473 C 287.644 69.895,287.117 69.421,287.035 69.421 C 286.952 69.421,287.343 69.895,287.904 70.473 M41.695 72.226 C 41.347 73.087,41.409 73.812,41.799 73.423 C 41.978 73.244,42.078 72.777,42.021 72.386 C 41.930 71.760,41.891 71.741,41.695 72.226 M289.707 71.920 C 289.707 71.971,290.147 72.411,290.684 72.896 L 291.660 73.779 290.778 72.802 C 289.955 71.892,289.707 71.688,289.707 71.920 M293.313 75.223 C 293.313 75.276,293.736 75.717,294.252 76.202 C 294.910 76.820,295.077 76.896,294.809 76.453 C 294.479 75.908,293.313 74.949,293.313 75.223 M252.720 77.461 L 251.991 78.287 252.893 77.536 C 253.388 77.122,253.850 76.751,253.919 76.709 C 253.988 76.668,253.910 76.634,253.746 76.634 C 253.582 76.634,253.120 77.006,252.720 77.461 M41.477 77.443 C 41.480 77.742,41.613 78.189,41.773 78.437 C 42.001 78.790,42.065 78.712,42.069 78.079 C 42.072 77.635,41.938 77.187,41.773 77.085 C 41.608 76.983,41.475 77.144,41.477 77.443 M297.197 78.837 C 297.963 79.680,298.128 79.784,298.112 79.414 C 298.107 79.290,297.735 78.929,297.286 78.612 L 296.469 78.035 297.197 78.837 M107.715 80.378 C 107.613 80.784,107.600 81.291,107.685 81.505 C 107.771 81.718,107.852 81.521,107.865 81.067 C 107.878 80.612,108.024 80.240,108.189 80.240 C 108.355 80.240,108.490 80.105,108.490 79.940 C 108.490 79.328,107.894 79.665,107.715 80.378 M42.374 82.276 C 42.374 82.790,42.507 83.293,42.670 83.393 C 42.855 83.507,42.895 83.204,42.777 82.584 C 42.524 81.256,42.374 81.141,42.374 82.276 M302.930 83.997 C 303.491 84.576,304.017 85.049,304.100 85.049 C 304.183 85.049,303.791 84.576,303.231 83.997 C 302.670 83.418,302.144 82.945,302.061 82.945 C 301.978 82.945,302.369 83.418,302.930 83.997 M106.687 84.825 C 106.687 84.868,106.554 85.366,106.391 85.932 C 106.229 86.498,106.212 86.836,106.353 86.681 C 106.660 86.346,107.065 84.748,106.843 84.748 C 106.757 84.748,106.687 84.783,106.687 84.825 M43.627 86.567 C 43.802 87.071,44.002 87.428,44.070 87.360 C 44.219 87.211,43.652 85.650,43.449 85.650 C 43.371 85.650,43.451 86.063,43.627 86.567 M311.946 92.111 C 312.507 92.690,313.033 93.163,313.116 93.163 C 313.198 93.163,312.807 92.690,312.246 92.111 C 311.686 91.533,311.159 91.059,311.077 91.059 C 310.994 91.059,311.385 91.533,311.946 92.111 M314.634 94.479 C 315.204 95.078,315.718 95.567,315.775 95.567 C 316.031 95.567,314.742 94.087,314.200 93.757 C 313.869 93.556,314.065 93.881,314.634 94.479 M317.355 96.863 C 317.355 96.915,317.795 97.355,318.332 97.840 L 319.309 98.723 318.426 97.746 C 317.603 96.836,317.355 96.631,317.355 96.863 M51.390 98.723 C 52.288 99.632,53.090 100.376,53.173 100.376 C 53.255 100.376,52.588 99.632,51.690 98.723 C 50.793 97.814,49.990 97.070,49.908 97.070 C 49.825 97.070,50.492 97.814,51.390 98.723 M54.395 101.523 C 54.395 101.665,54.733 101.936,55.147 102.124 C 55.560 102.312,55.898 102.417,55.898 102.357 C 55.898 102.297,55.560 102.026,55.147 101.756 C 54.733 101.485,54.395 101.380,54.395 101.523 M89.089 105.310 C 88.768 105.544,88.607 105.837,88.731 105.961 C 88.854 106.085,88.956 106.028,88.956 105.835 C 88.956 105.642,89.159 105.485,89.406 105.485 C 89.654 105.485,89.857 105.349,89.857 105.184 C 89.857 104.791,89.782 104.803,89.089 105.310 M326.371 104.987 C 326.371 105.034,326.799 105.469,327.322 105.954 C 328.270 106.836,328.271 106.836,327.697 106.023 C 327.218 105.345,326.371 104.683,326.371 104.987 M86.357 106.384 C 85.633 106.676,85.143 107.288,85.632 107.288 C 85.807 107.288,85.950 107.153,85.950 106.987 C 85.950 106.822,86.145 106.687,86.383 106.687 C 86.622 106.687,86.900 106.551,87.002 106.386 C 87.217 106.039,87.212 106.039,86.357 106.384 M82.344 107.588 C 81.725 107.787,81.699 107.833,82.194 107.854 C 82.524 107.868,82.998 107.749,83.246 107.588 C 83.772 107.248,83.407 107.248,82.344 107.588 M329.677 107.969 C 329.677 108.028,330.091 108.474,330.598 108.959 C 331.104 109.444,331.436 109.639,331.336 109.391 C 331.173 108.987,329.677 107.705,329.677 107.969 M71.525 108.490 C 72.113 108.870,72.727 108.870,72.727 108.490 C 72.727 108.325,72.355 108.191,71.901 108.194 C 71.257 108.198,71.174 108.263,71.525 108.490 M77.385 108.490 C 77.283 108.655,77.470 108.790,77.801 108.790 C 78.131 108.790,78.485 108.655,78.588 108.490 C 78.690 108.325,78.503 108.189,78.172 108.189 C 77.842 108.189,77.488 108.325,77.385 108.490 M338.693 116.097 C 338.693 116.149,339.132 116.588,339.669 117.074 L 340.646 117.956 339.763 116.980 C 338.941 116.069,338.693 115.865,338.693 116.097 M342.278 119.380 C 342.846 119.997,343.375 120.436,343.456 120.356 C 343.536 120.276,343.544 120.177,343.475 120.135 C 343.405 120.094,342.875 119.655,342.298 119.159 L 341.247 118.258 342.278 119.380 M346.807 123.310 C 346.807 123.361,347.246 123.801,347.784 124.286 L 348.760 125.169 347.878 124.192 C 347.055 123.282,346.807 123.077,346.807 123.310 M137.707 127.283 C 138.156 127.756,138.578 128.082,138.644 128.008 C 138.710 127.934,138.342 127.547,137.827 127.148 L 136.890 126.423 137.707 127.283 M350.413 126.613 C 350.413 126.666,350.836 127.107,351.352 127.592 C 352.010 128.210,352.177 128.285,351.909 127.843 C 351.578 127.297,350.413 126.339,350.413 126.613 M141.848 130.528 C 141.848 130.611,142.389 131.107,143.050 131.630 C 143.711 132.154,144.252 132.515,144.252 132.432 C 144.252 132.350,143.711 131.853,143.050 131.330 C 142.389 130.806,141.848 130.445,141.848 130.528 M176.559 141.778 C 176.394 141.899,176.060 142.269,175.817 142.600 C 175.491 143.043,175.589 143.010,176.192 142.472 C 176.928 141.816,177.152 141.539,176.935 141.552 C 176.893 141.555,176.724 141.656,176.559 141.778 M164.688 148.904 C 164.688 148.968,165.094 149.309,165.590 149.662 C 166.086 150.015,166.491 150.193,166.489 150.058 C 166.488 149.923,166.083 149.582,165.588 149.300 C 165.093 149.019,164.688 148.840,164.688 148.904 M62.660 166.721 C 62.494 166.843,62.160 167.213,61.917 167.543 C 61.589 167.991,61.704 167.952,62.368 167.393 C 62.859 166.980,63.317 166.608,63.386 166.566 C 63.455 166.525,63.387 166.493,63.236 166.496 C 63.084 166.498,62.825 166.600,62.660 166.721 M58.427 170.270 L 57.250 171.343 58.527 170.370 C 59.694 169.480,59.979 169.196,59.704 169.196 C 59.649 169.196,59.075 169.679,58.427 170.270 M16.625 254.545 C 16.625 255.620,16.680 256.059,16.746 255.522 C 16.813 254.985,16.813 254.106,16.746 253.569 C 16.680 253.032,16.625 253.471,16.625 254.545 M383.261 255.748 C 383.261 256.657,383.317 257.029,383.386 256.574 C 383.455 256.119,383.455 255.376,383.386 254.921 C 383.317 254.467,383.261 254.838,383.261 255.748 M16.829 257.701 C 16.829 257.949,16.965 258.152,17.130 258.152 C 17.295 258.152,17.431 257.949,17.431 257.701 C 17.431 257.453,17.295 257.250,17.130 257.250 C 16.965 257.250,16.829 257.453,16.829 257.701 M121.061 258.678 C 164.587 258.720,235.722 258.720,279.138 258.678 C 322.554 258.636,286.942 258.601,200.000 258.601 C 113.058 258.601,77.535 258.636,121.061 258.678 M0.370 260.856 C 0.370 261.435,0.432 261.672,0.508 261.382 C 0.583 261.093,0.583 260.620,0.508 260.331 C 0.432 260.041,0.370 260.278,0.370 260.856 M0.310 262.359 C 0.310 262.607,0.441 263.013,0.601 263.261 C 0.860 263.661,0.892 263.661,0.892 263.261 C 0.892 263.013,0.761 262.607,0.601 262.359 C 0.342 261.958,0.310 261.958,0.310 262.359 M382.156 262.822 C 382.053 263.090,381.980 263.535,381.994 263.811 C 382.008 264.087,382.139 263.914,382.285 263.426 C 382.568 262.478,382.468 262.008,382.156 262.822 M398.582 266.634 C 398.131 267.206,397.805 268.762,398.185 268.527 C 398.357 268.421,398.497 268.015,398.497 267.626 C 398.497 267.236,398.666 266.857,398.873 266.783 C 399.080 266.709,399.167 266.559,399.066 266.450 C 398.966 266.341,398.748 266.424,398.582 266.634 M2.609 270.924 C 2.802 271.891,2.933 272.150,3.128 271.951 C 3.195 271.882,3.065 271.420,2.840 270.924 L 2.429 270.023 2.609 270.924 M397.045 271.059 C 396.869 271.563,396.838 271.976,396.975 271.976 C 397.213 271.976,397.640 270.422,397.454 270.233 C 397.405 270.183,397.221 270.555,397.045 271.059 M3.770 273.854 C 3.882 274.226,4.098 274.663,4.249 274.824 C 4.401 274.986,4.372 274.681,4.186 274.148 C 3.806 273.056,3.454 272.808,3.770 273.854 M375.357 276.033 C 374.627 276.777,374.097 277.385,374.180 277.385 C 374.263 277.385,374.927 276.777,375.657 276.033 C 376.387 275.289,376.917 274.681,376.834 274.681 C 376.752 274.681,376.087 275.289,375.357 276.033 M369.167 280.044 C 369.293 280.247,369.195 280.391,368.931 280.391 C 368.683 280.391,368.404 280.513,368.312 280.663 C 368.219 280.813,368.416 280.864,368.750 280.777 C 369.515 280.577,369.761 280.196,369.305 279.914 C 369.085 279.778,369.033 279.827,369.167 280.044 M30.954 280.504 C 31.367 280.745,31.761 280.886,31.830 280.817 C 32.017 280.630,31.791 280.488,30.954 280.265 L 30.203 280.065 30.954 280.504 M33.959 281.723 C 35.217 282.231,35.699 282.304,35.297 281.925 C 35.140 281.777,34.538 281.575,33.959 281.477 L 32.908 281.298 33.959 281.723 M36.990 282.601 C 37.059 282.660,37.588 282.795,38.167 282.902 C 38.907 283.037,39.085 283.007,38.768 282.799 C 38.360 282.532,36.692 282.347,36.990 282.601 M361.232 282.795 C 360.658 283.166,361.276 283.166,362.434 282.795 L 363.186 282.554 362.434 282.529 C 362.021 282.515,361.480 282.635,361.232 282.795 M358.978 283.095 C 358.876 283.261,358.995 283.396,359.243 283.396 C 359.491 283.396,359.778 283.261,359.880 283.095 C 359.982 282.930,359.863 282.795,359.615 282.795 C 359.367 282.795,359.080 282.930,358.978 283.095 M44.027 283.396 C 43.921 283.567,44.180 283.696,44.628 283.696 C 45.076 283.696,45.335 283.567,45.229 283.396 C 45.127 283.231,44.857 283.095,44.628 283.095 C 44.400 283.095,44.129 283.231,44.027 283.396 M354.921 283.396 C 354.921 283.561,355.200 283.696,355.540 283.696 C 355.880 283.696,356.075 283.561,355.973 283.396 C 355.871 283.231,355.592 283.095,355.354 283.095 C 355.116 283.095,354.921 283.231,354.921 283.396 M123.140 283.922 C 165.496 283.964,234.805 283.964,277.160 283.922 C 319.515 283.880,284.861 283.846,200.150 283.846 C 115.440 283.846,80.785 283.880,123.140 283.922 M386.768 287.228 L 384.823 289.256 386.852 287.311 C 388.736 285.505,389.018 285.199,388.797 285.199 C 388.751 285.199,387.838 286.112,386.768 287.228 M13.073 287.303 C 14.054 288.295,14.925 289.106,15.007 289.106 C 15.090 289.106,14.355 288.295,13.373 287.303 C 12.392 286.311,11.521 285.500,11.439 285.500 C 11.356 285.500,12.091 286.311,13.073 287.303 M366.416 298.758 C 365.879 298.914,365.440 299.199,365.440 299.393 C 365.440 299.657,365.529 299.655,365.800 299.384 C 365.998 299.186,366.464 299.023,366.834 299.023 C 367.205 299.023,367.591 298.888,367.693 298.723 C 367.910 298.372,367.738 298.377,366.416 298.758 M40.201 300.143 C 40.741 300.210,41.552 300.208,42.004 300.140 C 42.455 300.071,42.014 300.016,41.022 300.018 C 40.030 300.020,39.661 300.076,40.201 300.143 M358.157 300.143 C 358.697 300.210,359.509 300.208,359.960 300.140 C 360.412 300.071,359.970 300.016,358.978 300.018 C 357.986 300.020,357.617 300.076,358.157 300.143 M122.113 300.451 C 165.061 300.493,235.249 300.493,278.086 300.451 C 320.924 300.409,285.785 300.375,200.000 300.375 C 114.215 300.375,79.166 300.409,122.113 300.451 " stroke="none" fill="#5f5f5f" fill-rule="evenodd"></path><path id="path4" d="M121.638 0.225 C 164.820 0.267,235.481 0.267,278.663 0.225 C 321.844 0.183,286.514 0.149,200.150 0.149 C 113.787 0.149,78.456 0.183,121.638 0.225 M45.980 17.130 C 45.980 17.295,46.488 17.428,47.107 17.426 C 47.946 17.422,48.119 17.347,47.784 17.130 C 47.191 16.747,45.980 16.747,45.980 17.130 M352.367 17.130 C 352.258 17.305,352.564 17.431,353.100 17.431 C 353.606 17.431,354.020 17.295,354.020 17.130 C 354.020 16.965,353.689 16.829,353.286 16.829 C 352.882 16.829,352.469 16.965,352.367 17.130 M74.305 41.988 C 74.760 42.057,75.503 42.057,75.958 41.988 C 76.412 41.919,76.041 41.863,75.131 41.863 C 74.222 41.863,73.850 41.919,74.305 41.988 M98.614 51.541 C 99.141 52.120,99.634 52.532,99.710 52.456 C 99.860 52.306,98.131 50.488,97.837 50.488 C 97.738 50.488,98.087 50.962,98.614 51.541 M282.167 64.863 C 282.329 65.166,282.698 65.606,282.986 65.840 C 283.311 66.104,283.238 65.894,282.796 65.289 C 282.007 64.211,281.711 64.011,282.167 64.863 M108.302 75.282 C 108.302 76.370,108.408 77.071,108.542 76.861 C 108.673 76.654,108.781 75.943,108.781 75.282 C 108.781 74.621,108.673 73.910,108.542 73.702 C 108.408 73.493,108.302 74.194,108.302 75.282 M51.424 99.316 C 51.965 99.890,52.476 100.292,52.558 100.209 C 52.707 100.060,50.895 98.272,50.596 98.272 C 50.510 98.272,50.882 98.742,51.424 99.316 M219.234 105.414 C 219.068 105.536,218.734 105.905,218.491 106.236 C 218.165 106.680,218.264 106.646,218.867 106.108 C 219.603 105.453,219.826 105.175,219.609 105.189 C 219.568 105.191,219.399 105.293,219.234 105.414 M216.604 107.495 C 216.315 107.571,216.078 107.758,216.078 107.911 C 216.078 108.335,216.561 108.243,216.980 107.739 C 217.185 107.491,217.303 107.303,217.242 107.323 C 217.180 107.342,216.893 107.419,216.604 107.495 M208.515 114.402 C 208.240 114.475,207.939 114.733,207.846 114.975 C 207.711 115.327,207.793 115.354,208.254 115.107 C 208.719 114.858,209.458 114.104,209.109 114.235 C 209.058 114.254,208.791 114.329,208.515 114.402 M125.920 117.627 C 125.920 117.686,126.404 118.104,126.995 118.555 C 127.867 119.219,127.998 119.259,127.688 118.762 C 127.360 118.238,125.920 117.313,125.920 117.627 M203.080 118.915 C 202.791 118.990,202.554 119.178,202.554 119.331 C 202.554 119.755,203.037 119.663,203.456 119.159 C 203.662 118.911,203.780 118.723,203.718 118.743 C 203.657 118.762,203.370 118.839,203.080 118.915 M197.019 124.352 L 196.442 125.169 197.244 124.440 C 198.087 123.675,198.191 123.510,197.821 123.526 C 197.697 123.531,197.336 123.903,197.019 124.352 M163.506 147.732 C 163.903 148.210,164.388 148.299,164.388 147.894 C 164.388 147.748,164.109 147.556,163.769 147.467 C 163.262 147.334,163.215 147.382,163.506 147.732 M55.772 172.136 L 55.195 172.953 56.072 172.201 C 56.555 171.788,57.006 171.416,57.075 171.375 C 57.144 171.334,57.009 171.304,56.774 171.309 C 56.540 171.314,56.089 171.686,55.772 172.136 M45.680 283.396 C 45.680 283.561,45.875 283.696,46.113 283.696 C 46.351 283.696,46.630 283.561,46.732 283.396 C 46.834 283.231,46.639 283.095,46.299 283.095 C 45.958 283.095,45.680 283.231,45.680 283.396 M353.418 283.396 C 353.418 283.561,353.621 283.696,353.869 283.696 C 354.117 283.696,354.320 283.561,354.320 283.396 C 354.320 283.231,354.117 283.095,353.869 283.095 C 353.621 283.095,353.418 283.231,353.418 283.396 M9.621 283.571 C 9.628 283.951,9.959 284.368,10.669 284.889 C 11.116 285.218,11.078 285.103,10.518 284.439 C 10.105 283.948,9.733 283.490,9.692 283.421 C 9.651 283.352,9.619 283.420,9.621 283.571 M389.459 284.487 C 388.764 285.242,388.761 285.259,389.401 284.869 C 389.769 284.645,390.137 284.289,390.218 284.079 C 390.433 283.518,390.272 283.604,389.459 284.487 " stroke="none" fill="#7c7c7c" fill-rule="evenodd"></path></g></svg>