<?xml version="1.0" encoding="utf-8"?>
<!-- Generator: Adobe Illustrator 23.0.0, SVG Export Plug-In . SVG Version: 6.00 Build 0)  -->
<svg version="1.1" id="Layer_1" xmlns="http://www.w3.org/2000/svg" xmlns:xlink="http://www.w3.org/1999/xlink" x="0px" y="0px"
	 viewBox="0 0 400 400" style="enable-background:new 0 0 400 400;" xml:space="preserve">
<style type="text/css">
	.st0{fill:#E7175C;stroke:#FFFFFF;stroke-width:3;stroke-miterlimit:10;}
	.st1{fill:#FFFFFF;}
</style>
<g>
	<path class="st0" d="M359.1,257.46c-0.08-0.09-0.49,0-0.49,0c0.07-0.48,0.16-0.95,0.28-1.43c0.06-0.15,0.12-0.3,0.19-0.45
		c0.01-0.06,0.01-0.13,0.02-0.19V38.28c0-4.6-2.9-8.46-6.89-9.83C310.17-2.78,71.11-1.5,44.12,30.24l0.33,0
		c-2.26,1.91-3.74,4.78-3.74,8.04v210.72c0.09,0.89,0.11,1.78,0.15,2.68c0.28,1.6,0.47,3.22,0.57,4.84
		c0.01,0.08,0.03,0.16,0.04,0.25c0.05,0.28,0.09,0.57,0.13,0.86c0.18,0.84,0.39,1.68,0.51,2.54c0.11,0.51,0.27,1,0.36,1.52
		c3.2,10.8,7.18,21.06,12.05,30.7c0.45,0.9,0.94,1.78,1.41,2.67c0.47,0.89,0.93,1.79,1.41,2.67c14.16,25.73,34.51,47.08,60.96,63.91
		c37.08,23.58,75.06,30.9,86.48,32.66c10.79-1.87,46.54-9.49,81.38-32.7c25.37-16.9,44.78-38.25,58.19-63.87
		c0.62-1.18,1.23-2.36,1.82-3.56c0.91-1.83,1.79-3.68,2.63-5.56c4.03-8.94,7.33-18.39,9.99-28.29c0.03-0.17,0.1-0.32,0.13-0.49
		C358.92,259.03,359.61,258.07,359.1,257.46z"/>
	<g>
		<g>
			<path class="st1" d="M159.13,193.29h-14.58l-43.88-66.66v66.66H86.08v-90.2h14.58l43.88,66.91V103.1h14.58V193.29z"/>
			<path class="st1" d="M234.87,102.97v11.77h-25.21v78.55h-14.71v-78.55h-25.08v-11.77H234.87z"/>
			<path class="st1" d="M259.69,102.97v53.61c0,8.02,1.77,13.99,5.31,17.91c3.54,3.92,8.51,5.88,14.91,5.88
				c6.31,0,11.24-1.96,14.77-5.88c3.54-3.92,5.31-9.89,5.31-17.91v-53.61h14.58v53.61c0,12.37-3.2,21.73-9.6,28.08
				c-6.4,6.36-14.84,9.53-25.33,9.53c-10.41,0-18.77-3.17-25.08-9.53c-6.31-6.35-9.47-15.71-9.47-28.08v-53.61H259.69z"/>
		</g>
		<g>
			<path class="st1" d="M101.41,246.03l-6.5-10.42h-2.99v10.42H87.7v-26.09h9.2c2.98,0,5.24,0.73,6.78,2.18
				c1.54,1.45,2.31,3.38,2.31,5.77c0,2.05-0.57,3.72-1.72,5.03c-1.15,1.31-2.8,2.15-4.97,2.51l6.84,10.61H101.41z M91.91,232.62
				h4.66c3.4,0,5.1-1.5,5.1-4.51c0-1.43-0.41-2.54-1.24-3.34c-0.83-0.8-2.11-1.2-3.86-1.2h-4.66V232.62z"/>
			<path class="st1" d="M128.58,236.68h-15.67c0.07,2.1,0.65,3.65,1.74,4.66c1.08,1.01,2.43,1.52,4.03,1.52
				c1.41,0,2.59-0.36,3.57-1.07c0.97-0.71,1.57-1.66,1.79-2.85h4.51c-0.27,1.43-0.84,2.7-1.7,3.81c-0.86,1.11-1.99,1.98-3.36,2.6
				c-1.38,0.63-2.92,0.94-4.62,0.94c-1.97,0-3.71-0.42-5.23-1.26c-1.52-0.84-2.7-2.05-3.57-3.62c-0.86-1.58-1.29-3.44-1.29-5.58
				c0-2.12,0.43-3.97,1.29-5.54c0.86-1.58,2.05-2.78,3.57-3.62c1.52-0.84,3.26-1.26,5.23-1.26c2,0,3.74,0.41,5.23,1.24
				c1.49,0.83,2.64,1.96,3.44,3.4c0.8,1.44,1.2,3.05,1.2,4.82C128.73,235.56,128.68,236.17,128.58,236.68z M123.79,231.42
				c-0.51-0.9-1.2-1.57-2.07-2c-0.87-0.43-1.83-0.65-2.87-0.65c-1.65,0-3.03,0.51-4.14,1.52c-1.11,1.01-1.71,2.5-1.81,4.47h11.57
				C124.52,233.43,124.3,232.32,123.79,231.42z"/>
			<path class="st1" d="M148.39,227.5c1.72,1.39,2.8,3.28,3.22,5.67h-4.47c-0.25-1.28-0.85-2.29-1.79-3.01
				c-0.95-0.73-2.14-1.09-3.57-1.09c-1.63,0-2.98,0.57-4.06,1.72c-1.08,1.15-1.63,2.83-1.63,5.05c0,2.22,0.54,3.91,1.63,5.06
				c1.08,1.16,2.44,1.74,4.06,1.74c1.43,0,2.62-0.37,3.57-1.11c0.95-0.74,1.55-1.75,1.79-3.03h4.47c-0.42,2.39-1.49,4.29-3.22,5.69
				c-1.73,1.41-3.91,2.11-6.54,2.11c-1.97,0-3.71-0.42-5.23-1.26c-1.52-0.84-2.71-2.05-3.57-3.62c-0.86-1.58-1.29-3.44-1.29-5.58
				c0-2.12,0.43-3.97,1.29-5.54c0.86-1.58,2.05-2.78,3.57-3.62c1.52-0.84,3.26-1.26,5.23-1.26
				C144.48,225.41,146.66,226.11,148.39,227.5z"/>
			<path class="st1" d="M162.84,226.5c1.28-0.78,2.76-1.17,4.43-1.17v4.58h-1.26c-1.85,0-3.33,0.45-4.45,1.35
				c-1.12,0.9-1.68,2.38-1.68,4.45v10.31h-4.21v-20.37h4.21v3.99C160.57,228.33,161.56,227.28,162.84,226.5z"/>
			<path class="st1" d="M189.19,225.67v20.37h-4.25v-4.43c-0.52,1.5-1.42,2.67-2.7,3.49c-1.28,0.83-2.77,1.24-4.47,1.24
				c-2.36,0-4.26-0.76-5.69-2.29c-1.43-1.53-2.14-3.71-2.14-6.54v-11.83h4.21v11.38c0,1.85,0.47,3.27,1.41,4.27
				c0.94,1,2.22,1.5,3.84,1.5c1.68,0,3.02-0.54,4.03-1.63c1.01-1.08,1.52-2.66,1.52-4.73v-10.79H189.19z"/>
			<path class="st1" d="M194.4,217.98c0.49-0.47,1.15-0.7,1.96-0.7s1.47,0.24,1.98,0.7c0.51,0.47,0.76,1.06,0.76,1.78
				c0,0.71-0.25,1.29-0.76,1.74c-0.5,0.44-1.16,0.66-1.98,0.66s-1.47-0.22-1.96-0.66s-0.74-1.02-0.74-1.74
				C193.66,219.04,193.91,218.45,194.4,217.98z M198.47,225.67v20.37h-4.21v-20.37H198.47z"/>
			<path class="st1" d="M213.8,242.38v3.66h-2.59c-2.17,0-3.81-0.52-4.93-1.57c-1.12-1.05-1.68-2.79-1.68-5.23v-9.98h-2.92v-3.59
				h2.92v-5.06h4.25v5.06h4.92v3.59h-4.92v10.05c0,1.16,0.21,1.96,0.64,2.4s1.19,0.66,2.27,0.66H213.8z"/>
			<path class="st1" d="M249.01,227.63c1.44,1.53,2.16,3.71,2.16,6.54v11.87h-4.22v-11.42c0-1.77-0.44-3.15-1.33-4.12
				c-0.89-0.97-2.11-1.46-3.66-1.46c-1.65,0-2.96,0.52-3.94,1.57c-0.97,1.05-1.46,2.58-1.46,4.6v10.83h-4.21v-11.42
				c0-1.77-0.45-3.15-1.33-4.12c-0.89-0.97-2.1-1.46-3.66-1.46c-1.65,0-2.96,0.52-3.94,1.57c-0.97,1.05-1.46,2.58-1.46,4.6v10.83
				h-4.21v-20.37h4.21v4.25c0.52-1.48,1.38-2.61,2.59-3.4c1.21-0.79,2.62-1.18,4.25-1.18c1.7,0,3.17,0.42,4.42,1.26
				c1.24,0.84,2.15,2.05,2.71,3.62c0.59-1.53,1.54-2.72,2.85-3.59c1.31-0.86,2.78-1.29,4.43-1.29
				C245.64,225.34,247.57,226.1,249.01,227.63z"/>
			<path class="st1" d="M274.86,236.68h-15.67c0.07,2.1,0.65,3.65,1.74,4.66c1.08,1.01,2.43,1.52,4.03,1.52
				c1.4,0,2.59-0.36,3.57-1.07s1.57-1.66,1.79-2.85h4.51c-0.27,1.43-0.84,2.7-1.7,3.81c-0.86,1.11-1.98,1.98-3.36,2.6
				c-1.38,0.63-2.92,0.94-4.62,0.94c-1.97,0-3.71-0.42-5.23-1.26c-1.52-0.84-2.71-2.05-3.57-3.62c-0.86-1.58-1.29-3.44-1.29-5.58
				c0-2.12,0.43-3.97,1.29-5.54c0.86-1.58,2.05-2.78,3.57-3.62c1.52-0.84,3.26-1.26,5.23-1.26c2,0,3.74,0.41,5.23,1.24
				c1.49,0.83,2.64,1.96,3.44,3.4c0.8,1.44,1.2,3.05,1.2,4.82C275.01,235.56,274.96,236.17,274.86,236.68z M270.07,231.42
				c-0.5-0.9-1.2-1.57-2.07-2c-0.87-0.43-1.83-0.65-2.86-0.65c-1.65,0-3.03,0.51-4.14,1.52c-1.11,1.01-1.71,2.5-1.81,4.47h11.57
				C270.81,233.43,270.58,232.32,270.07,231.42z"/>
			<path class="st1" d="M296.15,227.63c1.43,1.53,2.14,3.71,2.14,6.54v11.87h-4.21v-11.42c0-1.82-0.47-3.23-1.41-4.23
				s-2.22-1.5-3.84-1.5c-1.68,0-3.02,0.54-4.03,1.61c-1.01,1.07-1.52,2.64-1.52,4.71v10.83h-4.21v-20.37h4.21v4.47
				c0.54-1.53,1.45-2.71,2.73-3.55c1.28-0.84,2.76-1.26,4.44-1.26C292.82,225.34,294.72,226.1,296.15,227.63z"/>
			<path class="st1" d="M313.45,242.38v3.66h-2.59c-2.17,0-3.81-0.52-4.93-1.57c-1.12-1.05-1.68-2.79-1.68-5.23v-9.98h-2.92v-3.59
				h2.92v-5.06h4.25v5.06h4.92v3.59h-4.92v10.05c0,1.16,0.22,1.96,0.65,2.4c0.43,0.44,1.19,0.66,2.27,0.66H313.45z"/>
		</g>
	</g>
</g>
</svg>
